<svg id="Capa_1" data-name="Capa 1" xmlns="http://www.w3.org/2000/svg" xmlns:xlink="http://www.w3.org/1999/xlink" viewBox="0 0 1080 1080"><defs><style>.cls-1{fill:url(#Degradado_sin_nombre_11);}.cls-2{fill:#fff;}</style><radialGradient id="Degradado_sin_nombre_11" cx="325.3" cy="409.97" r="339.28" gradientUnits="userSpaceOnUse"><stop offset="0" stop-color="#00b4d8"/><stop offset="1" stop-color="#0077b6"/></radialGradient></defs><path class="cls-1" d="M406.83,540c0,103.34-83.77,187.11-187.11,187.11a187.3,187.3,0,0,1-31.08-2.58,156.59,156.59,0,0,0,45.19-15.22q-7.14.57-14.44.58a178.63,178.63,0,0,1-47.9-350.71,188.4,188.4,0,0,1,82.69-3.12C341.06,372.23,406.83,448.44,406.83,540Z"/><circle class="cls-2" cx="129.76" cy="539.97" r="26.75"/><circle class="cls-2" cx="223.86" cy="539.97" r="26.75"/><circle class="cls-2" cx="317.95" cy="539.97" r="26.75"/><path class="cls-2" d="M574.36,440.49a82,82,0,0,1,19.39,2.14,94.94,94.94,0,0,1,13.61,4.15l-7.31,30a49.48,49.48,0,0,0-10.95-3.4,59.12,59.12,0,0,0-11-1.13,30.62,30.62,0,0,0-11.47,1.89,17.65,17.65,0,0,0-7.3,5.16,19.81,19.81,0,0,0-3.78,7.82,40.15,40.15,0,0,0-1.14,9.82v6.55h46.36v31.24H554.45V636H516.92V496.42q0-25.71,14.48-40.82T574.36,440.49Z"/><path class="cls-2" d="M668.83,499.94q16.63,0,27.71,3.78t17.77,10.84a39.91,39.91,0,0,1,9.44,17.13,84.34,84.34,0,0,1,2.77,22.42v78.1q-8.06,1.75-22.42,4.15a214.79,214.79,0,0,1-34.76,2.4A110.35,110.35,0,0,1,646,636.49a50.6,50.6,0,0,1-18-7.43,33.94,33.94,0,0,1-11.59-13.48q-4-8.31-4-20.41,0-11.58,4.66-19.65a36,36,0,0,1,12.47-12.85,56.13,56.13,0,0,1,17.89-6.92,100.07,100.07,0,0,1,20.91-2.14,121.38,121.38,0,0,1,13,.62,59.34,59.34,0,0,1,9.2,1.64v-3.53q0-9.57-5.8-15.36t-20.15-5.8a128.9,128.9,0,0,0-18.9,1.39,81.43,81.43,0,0,0-16.12,3.9l-4.79-30.23c2.18-.67,4.92-1.38,8.19-2.14s6.84-1.43,10.71-2,7.93-1.1,12.22-1.52S664.46,499.94,668.83,499.94Zm3,109.84c3.7,0,7.22-.08,10.59-.25a71.21,71.21,0,0,0,8.06-.75V580.31q-2.26-.49-6.8-1a77.38,77.38,0,0,0-8.32-.5,74.36,74.36,0,0,0-10,.63,26.13,26.13,0,0,0-8.19,2.39,14,14,0,0,0-5.54,4.79,13.27,13.27,0,0,0-2,7.56q0,8.82,5.93,12.21T671.85,609.78Z"/><path class="cls-2" d="M798.58,609q10.32,0,14.61-2t4.28-7.81q0-4.53-5.54-7.93a105.58,105.58,0,0,0-16.88-7.69,170,170,0,0,1-16-6.8,46.84,46.84,0,0,1-12.22-8.44A34.14,34.14,0,0,1,759,556.63a43.34,43.34,0,0,1-2.77-16.38q0-18.64,13.86-29.47t38-10.84a121.9,121.9,0,0,1,23.18,2.15A108.19,108.19,0,0,1,849,506.74L842.41,536a137.14,137.14,0,0,0-14.23-4,77.76,77.76,0,0,0-17.26-1.77q-17.64,0-17.64,9.83a10.2,10.2,0,0,0,.76,4,8.53,8.53,0,0,0,3,3.4,42.38,42.38,0,0,0,6.18,3.55q3.9,1.9,10,4.18a153.94,153.94,0,0,1,20.4,9,48.94,48.94,0,0,1,12.73,9.6,29.77,29.77,0,0,1,6.55,11.44,50.76,50.76,0,0,1,1.89,14.58q0,19.61-14.74,29.66t-41.7,10q-17.62,0-29.35-3t-16.25-5L759,601a123.17,123.17,0,0,0,19.65,5.92A95.47,95.47,0,0,0,798.58,609Z"/><path class="cls-2" d="M881.46,470.47,919,464.42v39.05h45.1v31.24H919v46.61q0,11.83,4.16,18.89t16.76,7.06a71.4,71.4,0,0,0,12.47-1.14A63.38,63.38,0,0,0,964.09,603l5.29,29.23A105.85,105.85,0,0,1,954.27,637a87.79,87.79,0,0,1-20.41,2q-15.37,0-25.45-4.16a39.82,39.82,0,0,1-16.12-11.59,43.13,43.13,0,0,1-8.44-18,106,106,0,0,1-2.39-23.43Z"/><path class="cls-2" d="M997.86,455.09v5.4H987.3v29H981v-29H970.44v-5.4Z"/><path class="cls-2" d="M1010.14,455.09q1.08,1.88,2.43,4.61t2.72,5.73c.93,2,1.84,4,2.75,6.09s1.75,4,2.51,5.73q1.14-2.62,2.48-5.73t2.72-6.09q1.39-3,2.73-5.73t2.43-4.61h5.63q.45,3.77.86,8t.73,8.68q.33,4.44.61,8.93t.48,8.75h-6.15q-.21-6-.48-12.35t-.84-12.29l-1.28,2.72q-.75,1.59-1.59,3.45t-1.71,3.84c-.58,1.32-1.14,2.61-1.69,3.84s-1,2.4-1.51,3.48l-1.19,2.75h-4.66c-.33-.76-.73-1.69-1.19-2.78s-1-2.25-1.51-3.5-1.11-2.52-1.69-3.84-1.15-2.59-1.71-3.81-1.09-2.38-1.59-3.45-.92-2-1.29-2.7q-.55,5.94-.83,12.29t-.48,12.35h-6.15q.21-4.26.48-8.83c.19-3,.39-6.05.61-9.05s.46-5.89.73-8.7.55-5.4.86-7.78Z"/></svg>