<svg id="Capa_1" data-name="Capa 1" xmlns="http://www.w3.org/2000/svg" xmlns:xlink="http://www.w3.org/1999/xlink" viewBox="0 0 1080 1080"><defs><style>.cls-1{fill:url(#Degradado_sin_nombre_11);}.cls-2{fill:#fff;}</style><radialGradient id="Degradado_sin_nombre_11" cx="807.55" cy="197.25" r="894.36" gradientUnits="userSpaceOnUse"><stop offset="0" stop-color="#00b4d8"/><stop offset="1" stop-color="#0077b6"/></radialGradient></defs><path class="cls-1" d="M1022.45,540c0,272.4-220.82,493.22-493.22,493.22a495.22,495.22,0,0,1-81.94-6.79A413.08,413.08,0,0,0,566.43,986.3q-18.84,1.51-38.07,1.52C268.34,987.82,57.55,777,57.55,517a468.81,468.81,0,0,1,58.32-227.15C176.31,180.36,279.06,97.5,402.09,63.35a496.7,496.7,0,0,1,218-8.21C849.07,97.76,1022.45,298.63,1022.45,540Z"/><circle class="cls-2" cx="292.1" cy="539.91" r="70.5"/><circle class="cls-2" cx="540.13" cy="539.91" r="70.5"/><circle class="cls-2" cx="788.16" cy="539.91" r="70.5"/></svg>