<svg id="Capa_1" data-name="Capa 1" xmlns="http://www.w3.org/2000/svg" xmlns:xlink="http://www.w3.org/1999/xlink" viewBox="0 0 1080 1080"><defs><style>.cls-1{fill:#fff;}.cls-2{fill:url(#Degradado_sin_nombre_2);}.cls-3{fill:url(#Degradado_sin_nombre_2-2);}.cls-4{fill:url(#Degradado_sin_nombre_2-3);}</style><linearGradient id="Degradado_sin_nombre_2" x1="221.75" y1="539.91" x2="362.69" y2="539.91" gradientUnits="userSpaceOnUse"><stop offset="0" stop-color="#00b4d8"/><stop offset="1" stop-color="#0077b6"/></linearGradient><linearGradient id="Degradado_sin_nombre_2-2" x1="469.66" y1="539.91" x2="610.6" y2="539.91" xlink:href="#Degradado_sin_nombre_2"/><linearGradient id="Degradado_sin_nombre_2-3" x1="717.57" y1="539.91" x2="858.51" y2="539.91" xlink:href="#Degradado_sin_nombre_2"/></defs><path class="cls-1" d="M1022.22,540c0,272.26-220.72,493-493,493a495.72,495.72,0,0,1-81.9-6.78,412.69,412.69,0,0,0,119.08-40.12q-18.82,1.53-38,1.53C268.47,987.61,57.78,776.92,57.78,517a468.48,468.48,0,0,1,58.3-227c60.4-109.45,163.1-192.27,286.07-226.4A496.66,496.66,0,0,1,620,55.37C848.92,98,1022.22,298.75,1022.22,540Z"/><circle class="cls-2" cx="292.22" cy="539.91" r="70.47"/><circle class="cls-3" cx="540.13" cy="539.91" r="70.47"/><circle class="cls-4" cx="788.04" cy="539.91" r="70.47"/></svg>