<svg id="Capa_1" data-name="Capa 1" xmlns="http://www.w3.org/2000/svg" viewBox="0 0 1080 1080"><defs><style>.cls-1{fill:#091668;}.cls-2{fill:#fff;}.cls-3{fill:#00becc;}</style></defs><path class="cls-1" d="M440.7,635.09c-117.17,0-212.49-95.33-212.49-212.49S323.53,210.11,440.7,210.11H633.27c117.16,0,212.49,95.32,212.49,212.49S750.43,635.09,633.27,635.09Z"/><path class="cls-1" d="M633.27,211.21c116.55,0,211.38,94.83,211.38,211.39S749.82,634,633.27,634H440.7c-116.56,0-211.39-94.83-211.39-211.38S324.14,211.21,440.7,211.21H633.27m0-2.21H440.7c-118,0-213.6,95.63-213.6,213.6h0c0,118,95.63,213.59,213.6,213.59H633.27c118,0,213.59-95.63,213.59-213.59h0c0-118-95.63-213.6-213.59-213.6Z"/><path class="cls-2" d="M773.82,421.36c0,55.27-30.9,103.72-77.29,130.88h0a166.28,166.28,0,0,1-43.69,17.84L543.65,614.66a4.84,4.84,0,0,1-6.67-4.48v-30a4.84,4.84,0,0,0-4.84-4.84H463.38c-45.06,0-85.88-17.24-115.43-45.09s-47.81-66.33-47.81-108.85c0-85,73.09-153.93,163.24-153.93h147.2c45.06,0,85.88,17.23,115.43,45.09S773.82,378.86,773.82,421.36Z"/><circle class="cls-3" cx="431.97" cy="421.96" r="52.48"/><circle class="cls-3" cx="641.99" cy="423.24" r="52.48"/><path class="cls-1" d="M157.41,740.18a39.67,39.67,0,0,1,17.39,14.51q6.09,9.39,6.1,22.25a40.07,40.07,0,0,1-6.1,22.17,38.83,38.83,0,0,1-17.39,14.51q-11.29,5-26.63,5H107.54v31.82H80.83V735.07h50Q146.11,735.07,157.41,740.18ZM147.6,791.7q6.26-5.21,6.26-14.76,0-9.72-6.26-14.92t-18.3-5.19H107.54v40.06H129.3Q141.33,796.89,147.6,791.7Z"/><path class="cls-1" d="M284.26,813.38H217.17a20.85,20.85,0,0,0,8.57,13q6.75,4.79,16.81,4.78a34.19,34.19,0,0,0,12.29-2.06,29.93,29.93,0,0,0,10-6.51l13.68,14.83q-12.53,14.34-36.6,14.34-15,0-26.54-5.85a42.8,42.8,0,0,1-17.8-16.23,44.72,44.72,0,0,1-6.26-23.58,45.34,45.34,0,0,1,6.18-23.49,43.27,43.27,0,0,1,17-16.32,52.59,52.59,0,0,1,47.72-.25,41,41,0,0,1,16.57,16.08q6,10.47,6,24.31Q284.75,806.95,284.26,813.38Zm-60.17-28.52a21,21,0,0,0-7.25,13.52h43.68a21.29,21.29,0,0,0-7.25-13.44,21.72,21.72,0,0,0-14.51-5A22.15,22.15,0,0,0,224.09,784.86Z"/><path class="cls-1" d="M392.24,728.15V850.47H367.67V840.25q-9.56,11.54-27.69,11.53a46,46,0,0,1-22.67-5.6,40.07,40.07,0,0,1-15.91-16q-5.76-10.4-5.77-24.07t5.77-24.07a40.2,40.2,0,0,1,15.91-16,46.14,46.14,0,0,1,22.67-5.6q17,0,26.54,10.71v-43ZM360.59,824q6.42-6.69,6.42-17.89t-6.42-17.89a23.11,23.11,0,0,0-32.48,0q-6.44,6.69-6.43,17.89T328.11,824a23.11,23.11,0,0,0,32.48,0Z"/><path class="cls-1" d="M453,763.76a46.16,46.16,0,0,1,18-3.3V784.2q-4.29-.33-5.77-.33-11,0-17.31,6.18t-6.26,18.55v41.87H416V761.78h24.57v11.7A28.51,28.51,0,0,1,453,763.76Z"/><path class="cls-1" d="M487.68,745.29a14,14,0,0,1,0-20.44q4.45-4.12,11.54-4.12t11.54,4a12.67,12.67,0,0,1,4.45,9.88,14,14,0,0,1-4.45,10.64,16.13,16.13,0,0,1-11.54,4.2Q492.14,749.41,487.68,745.29Zm-1.32,16.49h25.72v88.69H486.36Z"/><path class="cls-1" d="M593.19,846.18a26.47,26.47,0,0,1-9.32,4.2,46.83,46.83,0,0,1-11.62,1.4q-15.82,0-24.48-8.07T539.11,820V783.54H525.43V763.76h13.68v-21.6h25.72v21.6h22.09v19.78H564.83v36.1q0,5.61,2.89,8.65c1.92,2,4.64,3.05,8.16,3.05a16.51,16.51,0,0,0,10.38-3.29Z"/><path class="cls-1" d="M622,845.93a43.38,43.38,0,0,1-17.39-16.23,47.46,47.46,0,0,1,0-47.15A43.4,43.4,0,0,1,622,766.31a56.77,56.77,0,0,1,50.2,0,43.64,43.64,0,0,1,17.31,16.24,47.52,47.52,0,0,1,0,47.15,43.62,43.62,0,0,1-17.31,16.23,56.77,56.77,0,0,1-50.2,0ZM663.33,824q6.34-6.69,6.35-17.89t-6.35-17.89a21.46,21.46,0,0,0-16.24-6.67,21.73,21.73,0,0,0-16.32,6.67q-6.43,6.69-6.43,17.89T630.77,824a21.69,21.69,0,0,0,16.32,6.67A21.43,21.43,0,0,0,663.33,824Z"/><path class="cls-3" d="M814.91,800.93q5.6,7.34,5.6,18.05,0,15.16-11.78,23.33t-34.37,8.16H714.68V735.07h56.38q21.09,0,32.39,8.08a25.55,25.55,0,0,1,11.29,21.92,27.72,27.72,0,0,1-15.33,25.39A30.45,30.45,0,0,1,814.91,800.93Zm-73.69-45.75v27.2h26.54q9.9,0,15-3.46t5.11-10.22q0-6.75-5.11-10.14t-15-3.38Zm47.06,71.71q5.36-3.45,5.36-10.71,0-14.34-21.26-14.35H741.22v28.52h31.16Q782.93,830.35,788.28,826.89Z"/><path class="cls-3" d="M856,845.93a43.47,43.47,0,0,1-17.4-16.23,47.52,47.52,0,0,1,0-47.15A43.49,43.49,0,0,1,856,766.31a53.21,53.21,0,0,1,25.14-5.85,52.67,52.67,0,0,1,25.05,5.85,43.57,43.57,0,0,1,17.31,16.24,47.46,47.46,0,0,1,0,47.15,43.55,43.55,0,0,1-17.31,16.23,52.67,52.67,0,0,1-25.05,5.85A53.21,53.21,0,0,1,856,845.93ZM897.42,824q6.33-6.69,6.34-17.89t-6.34-17.89a21.48,21.48,0,0,0-16.24-6.67,21.7,21.7,0,0,0-16.32,6.67q-6.43,6.69-6.43,17.89T864.86,824a21.66,21.66,0,0,0,16.32,6.67A21.44,21.44,0,0,0,897.42,824Z"/><path class="cls-3" d="M1004.16,846.18a26.47,26.47,0,0,1-9.32,4.2,46.83,46.83,0,0,1-11.62,1.4q-15.83,0-24.48-8.07T950.08,820V783.54H936.4V763.76h13.68v-21.6H975.8v21.6h22.09v19.78H975.8v36.1q0,5.61,2.89,8.65c1.92,2,4.64,3.05,8.16,3.05a16.51,16.51,0,0,0,10.38-3.29Z"/></svg>