<svg xmlns="http://www.w3.org/2000/svg" xmlns:xlink="http://www.w3.org/1999/xlink" viewBox="0 0 4000 4000"><defs><style>.cls-1{isolation:isolate;}.cls-2{fill:url(#Degradado_sin_nombre_19);}.cls-18,.cls-3{fill:#000072;}.cls-3{opacity:0.3;}.cls-4{fill:#494e7a;}.cls-5{fill:url(#linear-gradient);}.cls-6{fill:url(#radial-gradient);}.cls-7{fill:url(#linear-gradient-2);}.cls-8{fill:url(#linear-gradient-3);}.cls-9{fill:url(#linear-gradient-4);}.cls-10{fill:url(#linear-gradient-5);}.cls-11{fill:#00a4ff;}.cls-12,.cls-17{fill:#fff;}.cls-12,.cls-16{opacity:0.6;}.cls-13,.cls-15,.cls-17{opacity:0.7;}.cls-14,.cls-15,.cls-28{fill:#00cfff;}.cls-19,.cls-20,.cls-21,.cls-22,.cls-23,.cls-24{fill:none;}.cls-19{stroke:#00cfff;stroke-width:21.85px;}.cls-19,.cls-23,.cls-24{stroke-miterlimit:10;}.cls-20,.cls-21,.cls-22,.cls-23,.cls-24{stroke:#000072;}.cls-20,.cls-21,.cls-22{stroke-linejoin:round;}.cls-20,.cls-23,.cls-24{stroke-width:38.24px;}.cls-21{stroke-width:27.31px;}.cls-22{stroke-width:38.5px;}.cls-23{stroke-linecap:round;}.cls-25,.cls-27{mix-blend-mode:screen;}.cls-26{fill:url(#radial-gradient-2);}.cls-27{fill:url(#radial-gradient-3);}.cls-28{opacity:0.2;}</style><radialGradient id="Degradado_sin_nombre_19" cx="2000" cy="2000" r="2000" gradientUnits="userSpaceOnUse"><stop offset="0" stop-color="#0051a2"/><stop offset="1" stop-color="#00205d"/></radialGradient><linearGradient id="linear-gradient" x1="2322.28" y1="1795.88" x2="2664.14" y2="1795.88" gradientUnits="userSpaceOnUse"><stop offset="0" stop-color="#fff"/><stop offset="1" stop-color="#a3a7cc"/></linearGradient><radialGradient id="radial-gradient" cx="1587.76" cy="1345.77" r="1487.91" gradientUnits="userSpaceOnUse"><stop offset="0" stop-color="#fff"/><stop offset="0.21" stop-color="#fbfbfd"/><stop offset="0.42" stop-color="#eff0f6"/><stop offset="0.63" stop-color="#dcddeb"/><stop offset="0.83" stop-color="#c0c3dc"/><stop offset="1" stop-color="#a3a7cc"/></radialGradient><linearGradient id="linear-gradient-2" x1="2580.97" y1="2659.57" x2="2682.81" y2="3270.62" xlink:href="#linear-gradient"/><linearGradient id="linear-gradient-3" x1="1911.56" y1="2727.14" x2="2037.98" y2="3327.65" xlink:href="#linear-gradient"/><linearGradient id="linear-gradient-4" x1="2076.24" y1="2451.22" x2="2149.98" y2="3336.19" xlink:href="#linear-gradient"/><linearGradient id="linear-gradient-5" x1="1438.89" y1="2442.23" x2="1610.97" y2="3558.97" xlink:href="#linear-gradient"/><radialGradient id="radial-gradient-2" cx="9216.63" cy="3735.51" r="694.34" gradientTransform="matrix(0.96, 0, 0, 0.87, -7073.58, -1612.64)" gradientUnits="userSpaceOnUse"><stop offset="0" stop-color="#00a4ff"/><stop offset="0.04" stop-color="#008ad6"/><stop offset="0.1" stop-color="#006daa"/><stop offset="0.16" stop-color="#005381"/><stop offset="0.23" stop-color="#003d5e"/><stop offset="0.3" stop-color="#002a41"/><stop offset="0.38" stop-color="#001a29"/><stop offset="0.46" stop-color="#000e17"/><stop offset="0.57" stop-color="#00060a"/><stop offset="0.71" stop-color="#000102"/><stop offset="1"/></radialGradient><radialGradient id="radial-gradient-3" cx="9291.13" cy="3190.25" r="694.34" gradientTransform="matrix(0.96, 0, 0, 0.87, -7559.78, -1378.89)" xlink:href="#radial-gradient-2"/></defs><g class="cls-1"><g id="Layer_1" data-name="Layer 1"><rect class="cls-2" width="4000" height="4000" rx="2000"/><path class="cls-3" d="M2101.53,3096.19c-479.16,0-867.6,76.2-867.6,170.18a35.68,35.68,0,0,0,2.15,11.92c-1.94,82.87,200.91,165.42,456.88,185.21,136.38,10.54,260.6,1.17,348.55-22.32a136.82,136.82,0,0,1,36.06-4.7q11.94.08,24,.07c479.16,0,867.59-76.19,867.59-170.18S2580.69,3096.19,2101.53,3096.19Z"/><path class="cls-4" d="M2553.52,2000.73c-95.16,93.2-174.65,59.49-227.58,9-51.62-49.28-79.65-118-81.56-189.45-6.44-241.4,192.51-279.69,197-280.57l-61.62,92.38.06.05c-35.35,40-57.58,98.55-57.58,163.72,0,120.89,76.53,218.89,170.93,218.89A137.69,137.69,0,0,0,2553.52,2000.73Z"/><path class="cls-4" d="M2478.13,2241.31a105.62,105.62,0,0,1-22.45,34.58c-266.85,274.67-668.8,383.76-915.34,383.22-101.61-.22-176.72-19.07-205.23-52.61-99.86-117.67-47.59-226.49-47.59-226.49,408.89,204.47,959.48,47.15,1183.13-230.47l0,.05A100.8,100.8,0,0,1,2480,2169,102.31,102.31,0,0,1,2478.13,2241.31Z"/><path class="cls-5" d="M2629.12,1663.14c-31.24-52.39-80.52-86.15-135.91-86.15-43.54,0-83.25,20.87-113.35,55.17-35.35,40-57.58,98.55-57.58,163.72,0,120.89,76.53,218.89,170.93,218.89a137.69,137.69,0,0,0,60.31-14c56.05-27,98-90.68,108.22-168.19a278.71,278.71,0,0,0,2.4-36.66C2664.14,1746,2651.08,1700,2629.12,1663.14Zm-130.45,243.69c-19.94,0-38.29-8.63-52.88-23.11-20.54-20.32-33.76-52.11-33.76-87.84,0-61.29,38.79-111,86.64-111,20.82,0,39.83,9.34,54.85,25v.06c19.39,20.32,31.79,51.24,31.79,85.87C2585.31,1857.12,2546.53,1906.83,2498.67,1906.83Z"/><path class="cls-6" d="M2325.94,2009.75c-51.62-49.28-79.65-118-81.56-189.45-5.35-200.54,131-260.9,179.94-276.09.77-.22,1.53-.43,2.24-.65a.64.64,0,0,1,.44-.17c6.72-2,11.47-3.06,13.44-3.44.33,0,.66-.16,1-.22l98.5-147.66-4-2.67c-76.21-161.21-257.41-396.11-665.47-393.05-8.69.06-17.27.22-25.73.55-232,8-376.33,99.26-473.57,211.19l-5.52,6.45c-147.6,174.2-184.69,394.84-261.94,430.3-129.9,59.7-193.11,120.61-193.11,120.61s-43.31,161.65,61.68,340.28a0,0,0,0,0,.05.05c55,93.69,150.89,192.07,315.2,274.23,408.89,204.47,959.48,47.15,1183.13-230.47,37.64-46.6,65.93-96.58,82.87-148.81C2458.36,2093.93,2378.87,2060.22,2325.94,2009.75Zm-912,342.13c-85,59.93-145.63-28-179.45-103.41a609.37,609.37,0,0,1-31.25-87.4c110.57-11.75,157.33-59.71,176.45-104.51,0,0,127.83,148.37,74.24,251C1445.45,2323.75,1432.56,2338.77,1413.93,2351.88Z"/><path class="cls-7" d="M2830.48,3201.18a128,128,0,0,1-77.95,84.56c-8.42,3.17-17.54,6.5-27.26,10-5.68-79.11-32.12-131.44-65.56-166-71.18-73.8-174-66.7-174-66.7S2293.6,2812,2458.68,2694.29c111.55-79.49,312.09-2.63,376.72,198.08C2862.11,2975,2865.66,3078.76,2830.48,3201.18Z"/><path class="cls-8" d="M2123.93,3256c-1,3.22-2,6.56-3,9.83a157.27,157.27,0,0,1-63.86,85.06c7.05-77.9-12.34-129.85-43.86-164.32-48-52.55-124.34-64.35-178-65.33-35.18-.61-60.58,3.44-62,3.66,108.49-79.71-15.24-420.47,212.17-436.48,44.74-3.11,88.83,14.53,117.89,48.67C2157.91,2801.41,2217.78,2946.61,2123.93,3256Z"/><path class="cls-9" d="M2849.82,2844.18a428.39,428.39,0,0,1-14.42,48.19c-29.61-92-87.79-158-152.85-194.81-76.92-43.53-163.45-46.32-223.87-3.27a166.24,166.24,0,0,0-37,35.67c-94.23,126.19,64.08,333.06,64.08,333.06a.25.25,0,0,1-.17.06c-5.19,1.8-156.51,55.33-186.17,177.86-90,19.83-175.46,15.08-175.46,15.08,93.85-309.41,34-454.61-20.65-518.91-29-34-72.77-51.62-117.34-48.72a2.19,2.19,0,0,0-.55.05c-227.41,16-103.68,356.77-212.17,436.48h-.06a79,79,0,0,1-18.57,10.1c-28.84,11-50.53,25.73-66.7,42.17-.66.71-1.37,1.37-2,2.08-118.54-56.16-197-141.7-249-229.71a.75.75,0,0,0-.11-.16c-98.66-167.11-101.66-342.9-101.66-342.9a.19.19,0,0,0,.05.11c28.62,33.49,103.68,52.28,205.18,52.5,246.54.54,648.49-108.55,915.34-383.22a105.62,105.62,0,0,0,22.45-34.58S2569.31,2445,2699.21,2545c6.34,4.87,12.56,9.73,18.57,14.53,60.2,48,105,93,126.19,147.44C2859.27,2746.29,2862.27,2790.49,2849.82,2844.18Z"/><path class="cls-10" d="M1685.87,3179.27a150.94,150.94,0,0,0-32.07,51.84c-14.2-28.62-31.41-51.4-50.09-69.49-36.93-35.89-79.59-53.48-115.81-61.94-46.33-10.87-82.16-6.78-82.16-6.78,53.86-60.91,31-143.5,31-143.5C1488.72,3037.46,1567.27,3123.06,1685.87,3179.27Z"/><path class="cls-11" d="M2938,1210.55c-44,122-103.35,234.9-150.06,314.87-25.73,44.14-47.58,78.28-60.86,98.38a94.16,94.16,0,0,1-44.9,36.22,86.34,86.34,0,0,1-33.49,5.79,90.34,90.34,0,0,1-19.61-2.67c-31.24-52.39-80.52-86.15-135.91-86.15-43.54,0-83.25,20.87-113.35,55.17l-.06-.05,55.34-82.93,6.28-9.45,98.5-147.66,350.7-525.68S3022.33,977,2938,1210.55Z"/><path class="cls-11" d="M2661.74,1832.54a278.71,278.71,0,0,0,2.4-36.66c0-49.87-13.06-95.92-35-132.74a90.34,90.34,0,0,0,19.61,2.67c31.52.88,61-15.67,78.39-42,13.28-20.1,35.13-54.24,60.86-98.38l288.76-93.63S3126.34,1732.84,2661.74,1832.54Z"/><path class="cls-11" d="M2585.31,1795.88c0,61.24-38.78,110.95-86.64,110.95-19.94,0-38.29-8.63-52.88-23.11-20.54-20.32-33.76-52.11-33.76-87.84,0-61.29,38.79-111,86.64-111,20.82,0,39.83,9.34,54.85,25v.06C2572.91,1730.33,2585.31,1761.25,2585.31,1795.88Z"/><path class="cls-11" d="M1844.73,996.9c-232,8-376.33,99.26-473.57,211.19L1844.73,652.2S1992.22,847.6,1844.73,996.9Z"/><path class="cls-12" d="M1550.36,1067.08l319.13-374.61c-13.32-25.1-24.76-40.27-24.76-40.27l-473.57,555.89C1418.28,1153.85,1476.51,1104.49,1550.36,1067.08Z"/><path class="cls-11" d="M1413.93,2351.88c-137,96.58-210.7-190.81-210.7-190.81,110.57-11.75,157.33-59.71,176.45-104.51C1379.68,2056.56,1550.88,2255.3,1413.93,2351.88Z"/><path class="cls-11" d="M2725.27,3295.74c-52.83,19.06-123.68,42.22-192.62,57.52-64.13,14.26-126.63,21.69-171.42,12.56v-.05c-37.15-7.49-62.17-26.39-65.83-62.17a183.79,183.79,0,0,1,4-62.66c29.66-122.53,181-176.06,186.17-177.86a.25.25,0,0,0,.17-.06s102.8-7.1,174,66.7C2693.15,3164.3,2719.59,3216.63,2725.27,3295.74Z"/><path class="cls-11" d="M2057.06,3350.91c-35.12,23.05-88.06,49.44-154.59,57.85-51.35,6.56-110.73,2.4-176.29-22.23a123.09,123.09,0,0,1-50.74-35.62c-27.43-32.18-37.37-77.41-21.64-119.8a150.94,150.94,0,0,1,32.07-51.84c.65-.71,1.36-1.37,2-2.08,16.17-16.44,37.86-31.13,66.7-42.17a79,79,0,0,0,18.57-10.1h.06c1.42-.22,26.82-4.27,62-3.66,53.64,1,130,12.78,178,65.33C2044.72,3221.06,2064.11,3273,2057.06,3350.91Z"/><path class="cls-11" d="M1675.44,3350.91c-36.71,4.26-92,8.58-132.53,11.42-9,.65-17.26,1.2-24.42,1.69-25.67,1.75-51.51,3-77,.11-25.79-2.9-46.6-8.19-63.21-15.35-122-52.44-17.48-205.13,27.48-255.88,0,0,35.83-4.09,82.16,6.78,36.22,8.46,78.88,26.05,115.81,61.94,18.68,18.09,35.89,40.87,50.09,69.49C1638.07,3273.5,1648,3318.73,1675.44,3350.91Z"/><path class="cls-11" d="M2725.27,3295.74c-52.83,19.06-123.68,42.22-192.62,57.52-64.13,14.26-126.63,21.69-171.42,12.56v-.05c-37.15-7.49-62.17-26.39-65.83-62.17a183.79,183.79,0,0,1,4-62.66c29.66-122.53,181-176.06,186.17-177.86a.25.25,0,0,0,.17-.06s102.8-7.1,174,66.7C2693.15,3164.3,2719.59,3216.63,2725.27,3295.74Z"/><path class="cls-11" d="M2849.82,2844.18c12.45-53.69,9.45-97.89-5.85-137.17-21.14-54.46-66-99.47-126.19-147.44,0,0,81.56-62.38,106.14-155.25,16.17-61,85.39-99.31,134.44-61.13,25.62,19.89,45.73,60.64,49.93,129.91C3020.47,2673.47,2852.33,2841.67,2849.82,2844.18Z"/><path class="cls-3" d="M2553.52,2000.73c-16.94,52.23-45.23,102.21-82.87,148.81C2247,2427.16,1696.41,2584.48,1287.52,2380c-164.31-82.16-260.19-180.54-315.2-274.23,3.06,2.46,101.83,81.34,262.16,142.69,33.82,75.39,94.45,163.34,179.45,103.41,18.63-13.11,31.52-28.13,40-44.3,138.69,22.05,299.57,18.72,472-39.43,156.82-52.9,263.6-200.06,265.83-365.55,1.88-140.12,46.3-306.13,232.61-358.39-48.89,15.19-185.29,75.55-179.94,276.09,1.91,71.4,29.94,140.17,81.56,189.45C2378.87,2060.22,2458.36,2093.93,2553.52,2000.73Z"/><path class="cls-3" d="M2538.45,1394.27l-96.85,145.2-.58.37a137.76,137.76,0,0,0-14,3.55.64.64,0,0,0-.44.17c-.71.22-1.47.43-2.24.65a264.54,264.54,0,0,0-79.75,41.08c1.75-2.4,25.51-40,25.84-40.09h0c70.81-103.06,61-242.34-25.51-332.59-109.12-113.79-281.16-212.78-545.46-210.79-8.69,0-17.26.21-25.73.54-.55,0-1,.06-1.58.06,23.21-2.73,47.36-4.65,72.6-5.52,8.46-.33,17-.49,25.73-.55,408.06-3.06,589.26,231.84,665.47,393.05Z"/><path class="cls-3" d="M2484.71,2216.38c.17-1.26.31-2.52.44-3.79.16-1.55.27-3.11.35-4.67.07-1.15.15-2.31.17-3.46,0-2.6,0-5.19-.11-7.79,0-.66-.13-1.32-.18-2-.16-2.12-.37-4.25-.67-6.37-.13-.95-.3-1.9-.46-2.85-.33-1.94-.72-3.86-1.16-5.78-.2-.86-.38-1.72-.61-2.58-.7-2.72-1.49-5.43-2.44-8.11-.62-1.75-1.31-3.5-2-5.24h0a100.64,100.64,0,0,0-7.3-14.16l0-.05C2247,2427.16,1696.41,2584.48,1287.52,2380c0,0-11.33,23.74-13.33,60.95l0-.13c0,.56,0,1.16-.06,1.73-.07,1.44-.11,2.89-.15,4.37s0,3-.06,4.47,0,3,0,4.47.09,3.23.16,4.87.12,3,.22,4.49c.11,1.78.27,3.6.44,5.43.1,1.15.15,2.26.27,3.42a1,1,0,0,0,0-.17c4,38.23,19.4,84.66,60.08,132.59,28.51,33.54,103.62,52.39,205.23,52.61,246.54.54,648.49-108.55,915.34-383.22a106.48,106.48,0,0,0,27.63-51.44h0c.25-1.16.43-2.34.64-3.51C2484.23,2219.42,2484.5,2217.9,2484.71,2216.38ZM1534.88,2599c-101.61-.22-176.72-19.07-205.24-52.61-27-31.83-42.85-63-51.64-91.55,4-19.58,9.52-31.14,9.52-31.14,329.29,164.66,750.44,94.65,1018.76-83.83C2053.19,2523.79,1740.18,2599.47,1534.88,2599Z"/><path class="cls-3" d="M1985.39,2688.44c-227.41,16-103.68,356.77-212.17,436.48h-.06a79,79,0,0,1-18.57,10.1c-28.84,11-50.53,25.73-66.7,42.17-.66.71-1.37,1.37-2,2.08-118.54-56.16-197-141.7-249-229.71,4.37,4.75,127.72,139.9,209.44,123.4C1835.33,3034.94,1721.05,2684.34,1985.39,2688.44Z"/><path class="cls-3" d="M2485.73,3063a.25.25,0,0,1-.17.06c-5.19,1.8-156.51,55.33-186.17,177.86-90,19.83-175.46,15.08-175.46,15.08,93.85-309.41,34-454.61-20.65-518.91-29-34-72.77-51.62-117.34-48.72,12.59-1.67,243.83-25.91,234.52,412.21-.36,16.61,12.54,31,29.14,31.34,8.54.2,19.05-1.29,31.71-5.88,38.41-13.85,37.82-46.73,88.33-75.21a30.55,30.55,0,0,0,14-35.47c-19.21-63.83-58.93-232.49,38.05-285.42C2327.42,2856.15,2485.73,3063,2485.73,3063Z"/><path class="cls-3" d="M2146.31,2800.85c8.71,82.33-.57,193.74-46.13,343.94-1,3.22-2,6.55-3,9.83a157.44,157.44,0,0,1-63.86,85.06c-35.13,23.05-88.06,49.43-154.6,57.85-51.35,6.55-110.73,2.4-176.28-22.24a123.12,123.12,0,0,1-45.55-29.87c-11,39.53-.68,80.47,24.69,110.23a123,123,0,0,0,50.75,35.62c65.55,24.64,124.93,28.79,176.28,22.23,66.54-8.41,119.47-34.8,154.6-57.85a157.33,157.33,0,0,0,63.86-85.05c1-3.28,2-6.61,3-9.84C2202.13,3023.2,2183.54,2882.51,2146.31,2800.85Z"/><path class="cls-3" d="M1646.37,3273.26c-35.16,3.57-79.73,7-113.81,9.4-9,.65-17.26,1.2-24.42,1.69-25.67,1.75-51.51,3-77,.11-25.79-2.9-46.6-8.2-63.21-15.35-20-8.59-33.87-19.89-43-33-10.55,45.55-1.36,89.15,53.3,112.64,16.61,7.16,37.42,12.45,63.21,15.35,25.51,2.89,51.35,1.64,77-.11,7.16-.49,15.41-1,24.42-1.69,40.48-2.84,95.82-7.16,132.53-11.42A121,121,0,0,1,1646.37,3273.26Z"/><path class="cls-3" d="M2835.4,2892.37c-27.21-84.51-78.55-147-137.16-185.13,30.19,34.43,55.33,77.32,71.71,128.2,26.72,82.65,30.27,186.39-4.91,308.81a128,128,0,0,1-78,84.56c-8.41,3.17-17.53,6.51-27.25,10-52.83,19.07-123.68,42.23-192.62,57.52-63.95,14.22-126.27,21.64-171,12.64,5.54,32.3,29.82,49.7,65.06,56.8v.05c44.79,9.13,107.29,1.7,171.42-12.56,68.94-15.3,139.79-38.46,192.62-57.52,9.72-3.5,18.84-6.83,27.26-10a128,128,0,0,0,77.95-84.56C2865.66,3078.76,2862.11,2975,2835.4,2892.37Z"/><path class="cls-3" d="M2849.82,2844.18a428.39,428.39,0,0,1-14.42,48.19c-29.61-92-87.79-158-152.85-194.81,19.12-27.36,13.6-61-41.85-98.54-21.23-14.39-41.59-33.75-60.47-55.28-75-85.57-201-104.21-297.89-44.5-101,62.24-247.39,133.61-447,188.38-441.83,121.27-498.91-76.26-500.17-81,28.62,33.49,103.68,52.28,205.18,52.5,246.54.54,648.49-108.55,915.34-383.22a105.62,105.62,0,0,0,22.45-34.58S2569.31,2445,2699.21,2545c6.34,4.87,12.56,9.73,18.57,14.53,60.2,48,105,93,126.19,147.44C2859.27,2746.29,2862.27,2790.49,2849.82,2844.18Z"/><path class="cls-3" d="M3008.29,2473.1c-3.7-61-19.77-99.93-41.07-121.91.94,7.84,1.72,16,2.24,24.61,8.73,143.48-64.17,272.33-119.7,348.47,10,34.93,10.72,73.93.06,119.91C2852.33,2841.67,3020.47,2673.47,3008.29,2473.1Z"/><path class="cls-3" d="M1381.41,2058.62l0,0-.86-1-.15-.17-.69-.82c-.68,1.59-1.4,3.19-2.15,4.78-.22.47-.45.94-.68,1.41-.56,1.15-1.13,2.31-1.73,3.46-.26.51-.53,1-.81,1.54-.63,1.19-1.29,2.38-2,3.58-.23.41-.46.83-.71,1.25-1.92,3.29-4,6.58-6.28,9.85l-.35.48c-1,1.46-2.09,2.91-3.19,4.36l-.72.94c-1,1.34-2.12,2.69-3.24,4l-.7.85c-1.33,1.57-2.7,3.14-4.13,4.69-27.4,29.73-73.33,55.18-149.79,63.3,0,0,26.11,101.72,76.1,163.79-35.38-59.69-53.73-131.17-53.73-131.17,46.13-4.9,81.15-16.11,107.69-30.76,25.57-14.11,58-3.35,68.64,23.88,23.44,60.28,29,130.47-37,177a132.58,132.58,0,0,1-12.13,7.64c18.72,1.55,39.1-4,61.13-19.55C1542.76,2261,1398.93,2079.81,1381.41,2058.62Z"/><path class="cls-3" d="M2629.12,1663.14c-13-21.89-29.29-40.47-47.77-54.75A268.2,268.2,0,0,1,2600.9,1710a278.71,278.71,0,0,1-2.4,36.66,264.35,264.35,0,0,1-13.43,55.41c-2.39,55.57-36.65,100.22-79.84,104.38a155.33,155.33,0,0,1-14.95,8.41,137.82,137.82,0,0,1-60.31,14c-32.24,0-62.4-11.44-88.13-31.32,28.59,69.69,85.63,117.24,151.37,117.24a137.69,137.69,0,0,0,60.31-14c56.05-27,98-90.68,108.22-168.19a278.71,278.71,0,0,0,2.4-36.66C2664.14,1746,2651.08,1700,2629.12,1663.14Z"/><path class="cls-3" d="M2553.52,1710V1710a82.54,82.54,0,0,0-30.57-20.53,132.62,132.62,0,0,1,15.5,63.06c0,61.23-38.79,110.94-86.64,110.94a69.23,69.23,0,0,1-24.3-4.51,106,106,0,0,0,18.28,24.81c14.59,14.48,32.94,23.11,52.88,23.11,47.86,0,86.64-49.71,86.64-110.95C2585.31,1761.25,2572.91,1730.33,2553.52,1710Z"/><path class="cls-3" d="M2493.21,2014.77c-51.88,0-98.33-29.64-129.68-76.38-21.22-9.14-40.21-23.18-56.64-38.85a259.83,259.83,0,0,1-62.52-94.26c0,5-.13,9.88,0,15,1.91,71.4,29.94,140.17,81.56,189.45,52.93,50.47,132.42,84.18,227.58-9A137.69,137.69,0,0,1,2493.21,2014.77Z"/><path class="cls-3" d="M3076.74,1431.79l-10.94,3.55c-21.79,96.56-105.42,246.68-406,312.16a276.14,276.14,0,0,1,1.93,85C3126.34,1732.84,3076.74,1431.79,3076.74,1431.79Z"/><path class="cls-3" d="M2890.62,866.39l-8.22,12.34c26,56.28,43.95,146.88-1.86,273.79-44,122-103.35,234.89-150.06,314.87-25.73,44.14-47.58,78.28-60.85,98.38-.08.12-.16.25-.25.37-11.9,17.8-36.83,20.72-53.48,7.25-31.7-25.64-72.68-24.52-112.91-24.52-25.08,0-90.94,16.39-123.19,83.24h0l.06.05c30.1-34.3,69.81-55.17,113.35-55.17,34.4,0,66.43,13,93.26,35.45,1.1.92,2.17,1.91,3.25,2.86,1.42,1.24,2.83,2.48,4.22,3.77,1.11,1,2.2,2.13,3.29,3.2,1.32,1.3,2.63,2.6,3.92,4,1,1.1,2.09,2.23,3.13,3.37q1.93,2.12,3.82,4.31c1,1.13,1.94,2.27,2.89,3.44,1.3,1.57,2.56,3.18,3.81,4.8.87,1.12,1.74,2.24,2.58,3.38,1.37,1.86,2.7,3.76,4,5.68.67,1,1.37,1.93,2,2.92,2,2.94,3.87,5.94,5.7,9a90.34,90.34,0,0,0,19.61,2.67c2.6.08,5.18,0,7.74-.17l1.89-.15a86.08,86.08,0,0,0,15.47-2.73l.74-.21q3.88-1.1,7.65-2.53h0a94.42,94.42,0,0,0,44.9-36.21c13.28-20.1,35.13-54.24,60.86-98.38,46.71-80,106-192.89,150.06-314.87C3022.33,977,2890.62,866.39,2890.62,866.39Z"/><path class="cls-3" d="M1844.73,652.2l-10.65,12.5c.33.69.65,1.38,1,2.08,57.21,122.67-14.58,266.24-146.62,296-80.17,18.08-178.77,72.57-317.28,245.29h0c97.24-111.93,241.56-203.22,473.57-211.19C1992.22,847.6,1844.73,652.2,1844.73,652.2Z"/><g class="cls-13"><path class="cls-14" d="M1016.82,2143.24a0,0,0,0,1-.05,0c-105-178.63-61.68-340.28-61.68-340.28S1018.3,1742,1148.2,1682.3c77.24-35.46,114.34-256.1,261.94-430.31l5.52-6.44c97.23-111.93,241.56-203.22,473.56-211.19,8.47-.33,17-.49,25.73-.55,209.18-1.57,358.72,59.4,465.09,140.9-107.85-99.52-269.41-180.16-509.58-178.36-8.69.06-17.27.22-25.73.55-232,8-376.33,99.26-473.57,211.19l-5.52,6.45c-147.6,174.2-184.69,394.84-261.94,430.3-129.9,59.7-193.11,120.61-193.11,120.61s-43.31,161.65,61.68,340.28a0,0,0,0,0,.05.05c34.63,59,85.47,119.81,159.37,177.29C1081.2,2237,1044,2189.55,1016.82,2143.24Z"/></g><g class="cls-13"><path class="cls-14" d="M1491.5,2949.56a.48.48,0,0,0-.11-.16c-72.62-123-93.39-250.63-99.31-309.47-25.75-8.51-45.25-19.67-56.92-33.32a.19.19,0,0,1-.05-.11s3,175.79,101.66,342.9a.75.75,0,0,1,.11.16c51.95,88,130.45,173.55,249,229.71.65-.71,1.36-1.37,2-2.08a162,162,0,0,1,18.17-15.79C1606.55,3105.82,1538.23,3028.72,1491.5,2949.56Z"/></g><path class="cls-15" d="M1835.22,3121.26c2,0,4.19.12,6.31.19,74-104.95-18.84-401.71,193-416.62a145.18,145.18,0,0,1,30.59,1.15,144.08,144.08,0,0,0-79.76-17.54c-227.41,16-103.68,356.77-212.17,436.48C1774.64,3124.7,1800,3120.65,1835.22,3121.26Z"/><path class="cls-15" d="M2552.59,3070.18v.05c-37.86-9.23-66.86-7.21-66.86-7.21S2293.6,2812,2458.68,2694.29c26.61-19,58.29-28.9,91.94-30.54a159.3,159.3,0,0,0-37.31,19.61C2348.23,2801,2552.59,3070.18,2552.59,3070.18Z"/><path class="cls-12" d="M1669,3271.54a150.94,150.94,0,0,1,32.07-51.84c.65-.71,1.36-1.37,2-2.08,16.17-16.44,37.85-31.14,66.7-42.17h0A121.58,121.58,0,0,1,1820.6,3162c8.41-.33,18.44-.5,29.84-.31,53.64,1,130,12.79,178,65.34a158,158,0,0,1,23.24,33.25c-7.64-30.7-21.21-54.83-38.45-73.68-48-52.55-124.34-64.35-178-65.33-35.18-.61-60.58,3.44-62,3.66h-.06a79,79,0,0,1-18.57,10.1c-28.84,11-50.53,25.73-66.7,42.17-.66.71-1.37,1.37-2,2.08a150.94,150.94,0,0,0-32.07,51.84,119.18,119.18,0,0,0,9.67,103A118.4,118.4,0,0,1,1669,3271.54Z"/><path class="cls-12" d="M1674.64,3351l.8-.09c-.57-.66-1.08-1.37-1.63-2C1674.08,3349.58,1674.35,3350.29,1674.64,3351Z"/><path class="cls-12" d="M1401.82,3154.79a71.14,71.14,0,0,1,63.24-28.73,288.38,288.38,0,0,1,42.11,6.6c36.22,8.47,78.88,26.06,115.81,62a239.6,239.6,0,0,1,30.78,36.62.56.56,0,0,0,0-.12c-14.2-28.62-31.41-51.4-50.09-69.49-36.93-35.89-79.59-53.48-115.81-61.94-46.33-10.87-82.16-6.78-82.16-6.78-39.6,44.7-125.4,168.47-61.92,233.18C1328.39,3272.15,1368.11,3200.65,1401.82,3154.79Z"/><path class="cls-12" d="M2311.1,3281.13c29.66-122.53,162.52-168.65,167.71-170.46l.18-.06a103.27,103.27,0,0,1,46-6.66c35.45,3.1,98.19,16,146.41,66,18.5,19.13,34.83,43.73,46.71,75.25-11.17-51.69-32.71-88.84-58.42-115.44-71.18-73.8-174-66.7-174-66.7a.25.25,0,0,1-.17.06c-5.19,1.8-156.51,55.33-186.17,177.86a183.79,183.79,0,0,0-4,62.66c1.26,12.27,5.08,22.51,11,31A181.78,181.78,0,0,1,2311.1,3281.13Z"/><path class="cls-12" d="M2890.62,866.39l-350.7,525.68-98.5,147.66-6.28,9.45-55.34,82.93.06.05c25.1-28.61,56.9-47.82,92-53.43l78.58-117.8,12.81-19.2a30.22,30.22,0,0,1,18.14-12.55c21.21-5.11,53.17-34.29,80.31-75.5,26.75-40.63,40.9-81,37.77-102.67a29.53,29.53,0,0,1,4.76-20.6L2890.7,950.94a15.19,15.19,0,0,1,24.13-1.56c14.65,17.07,37.61,49.76,51.07,98.68C2960.8,925.37,2890.62,866.39,2890.62,866.39Z"/><path class="cls-12" d="M2969.12,2353.25c-44.52-10.93-94.06,23.92-107.45,74.34-24.58,92.87-111.71,158.75-111.71,158.75-10.16-8.9-20.87-17.75-32.18-26.77,0,0,81.56-62.38,106.14-155.25,16.17-61,85.39-99.31,134.44-61.13A87.61,87.61,0,0,1,2969.12,2353.25Z"/><g class="cls-16"><path class="cls-17" d="M1381.87,2059.19c-1.4-1.7-2.19-2.63-2.19-2.63-1.42,3.33-3,6.68-4.75,10C1377.38,2064.15,1379.68,2061.68,1381.87,2059.19Z"/><path class="cls-17" d="M1440.47,2315.89c-108.85,76.76-177.76-89-201.47-160.3-11.12,2.26-23,4.12-35.77,5.48,0,0,73.75,287.39,210.7,190.81,20.26-14.29,33.74-30.82,42.06-48.61A145.31,145.31,0,0,1,1440.47,2315.89Z"/></g><path class="cls-18" d="M1930.16,1968c-409.61,49.57-235.28-313.73-826.46-323.12,93.14-42.78,128-355.08,368.79-530.22,0,0,386.83-60,631.61,176,110.88,106.92,160.45,264,122.24,413.28C2197.81,1815.31,2113.93,1945.72,1930.16,1968Z"/><path class="cls-19" d="M1415.92,1161.55s417.11-42.67,634.81,167.25c98.61,95.09,148.18,224.2,114.2,356.91-25.37,99.07-89,209.59-266.38,221.11-325.8,21.15-220.6-304.24-746.37-312.6"/><path class="cls-20" d="M2536,1389.39c-76.23-161.18-257.42-396.12-665.49-393-620.42,4.69-636.81,588.81-766.74,648.51s-193.15,120.57-193.15,120.57S809.9,2141.19,1287.5,2380s1148.35-15.8,1266-379.26"/><ellipse class="cls-20" cx="2493.21" cy="1795.87" rx="170.91" ry="218.9"/><path class="cls-20" d="M2379.83,1632.13l510.79-765.71S3022.32,977,2938,1210.57c-68.29,189.23-173.48,356.56-210.93,413.23-17.39,26.32-46.84,42.88-78.37,42a91.37,91.37,0,0,1-19.63-2.69"/><path class="cls-20" d="M2788,1525.43l288.76-93.62s49.57,301-415.06,400.74"/><ellipse class="cls-21" cx="2498.67" cy="1795.87" rx="86.62" ry="110.95"/><line class="cls-21" x1="2553.49" y1="1709.96" x2="2445.77" y2="1883.7"/><path class="cls-20" d="M2441.46,1539.74s-203.59,36.38-197.06,280.59c1.91,71.35,29.91,140.16,81.56,189.43,52.91,50.48,132.42,84.18,227.53-9"/><path class="cls-22" d="M1365.65,1214.51,1844.7,652.2s147.5,195.4,0,344.69"/><path class="cls-18" d="M1221.75,1881.57c-22.85,31.12-63.31,67.27-132.65,82.43-37.13,8.13-76.08,1.48-107.76-19.52-29.28-19.41-63.15-50.59-79.54-97,.38-50.53,8.79-82,8.79-82s12.51-12.07,37.92-30.75c0,0,145.84-23.54,258.11,56.58C1235.69,1812,1242.89,1852.78,1221.75,1881.57Z"/><path class="cls-18" d="M1392.44,1970.58c6.83,13.1,9.91,27.51,10.83,42.19a129.39,129.39,0,0,1-5.16,44.31c-8.46,29.33-28.3,55.05-51.8,74.18-23.79,19.18-51.46,31.6-79.33,40-7,2.08-14,3.65-21.08,5.45-7.06,1.34-14.13,2.85-21.2,4-7.11,1-14.09,2.13-21.31,2.89-7.35.51-14.6,1.38-22,1.55-14.88.23-30-.23-45.29-3.48a149.7,149.7,0,0,1-44.75-15.67,127,127,0,0,1-37.83-30.43,158.54,158.54,0,0,1-24.86-40.39c-12-28.65-16.14-58.44-17-87.29a366.1,366.1,0,0,1,1.85-43q1.1-10.66,2.85-21.23c1.17-7.16,2.42-13.83,4.3-21.52a18.84,18.84,0,0,1,36.95,7.09l-.12.88c-.81,5.59-1.62,12.33-2.18,18.6s-.92,12.81-1.29,19.21a350.14,350.14,0,0,0,.35,38.22c1.51,25.19,6.54,49.72,15.72,71.08a112.91,112.91,0,0,0,18,28.29c3.5,4.21,7.65,7.66,11.64,11.27l6.55,4.75c2.16,1.61,4.7,2.71,7,4.12,19,10.73,42.84,14.06,67.18,14.15,6.11,0,12.35-.64,18.53-.89,6.26-.51,12.68-1.46,19-2.15,6.31-.91,12.53-2.11,18.81-3.13,6.12-1.45,12.34-2.67,18.37-4.32,6-1.83,12.1-3.24,17.84-5.46,2.9-1.05,5.87-2,8.72-3.1l8.45-3.59c11-5.08,21.76-10.82,31.27-17.93a134.67,134.67,0,0,0,25.45-24.38,175.37,175.37,0,0,0,18.79-30.05c10.71-21.59,17.79-46.11,22.89-73.43l0-.19a2,2,0,0,1,3.82-.57Z"/><path class="cls-23" d="M1035.15,1951.41s-3.28,116.27-62.91,154.34"/><path class="cls-24" d="M1203.22,2161.09s73.75,287.38,210.71,190.81-34.26-295.32-34.26-295.32"/><path class="cls-18" d="M1317.08,2121.51c1.6,1.8,2.48,2.84,3.53,4.22l2.89,3.9c1.84,2.57,3.63,5.15,5.22,7.79,3.3,5.25,6.23,10.6,9,16a291.32,291.32,0,0,1,13.88,33.27c4,11.25,7.32,22.64,10.18,34.11s5.19,23,7,34.59a2.4,2.4,0,0,1-4.41,1.63l0-.07c-3.07-5-5.88-10-8.83-15-3.12-4.9-5.85-9.93-8.92-14.78-6.09-9.72-12.19-19.31-18.58-28.59s-13-18.29-19.61-27c-3.36-4.32-6.65-8.65-10-12.79l-4.94-6.14-4.47-5.25-.71-.84a19.1,19.1,0,0,1,28.85-25Z"/><path class="cls-18" d="M1001.42,2075.42s34.54,160.4,228.35,162.25l-26.55-76.58s-165.64,25.75-173.79-162.34C1029.43,1998.75,1012.38,2060.84,1001.42,2075.42Z"/><path class="cls-20" d="M1287.5,2380s-52.25,108.87,47.62,226.51c97.61,115,743.81,57.21,1120.57-330.63,27.4-28.21,37.48-69.79,24.35-106.86a98.91,98.91,0,0,0-9.36-19.44"/><path class="cls-18" d="M1288.34,2481c1.62.86,4.07,2.1,6.26,3.14s4.56,2.13,6.87,3.19c4.63,2.1,9.39,4.1,14.16,6,9.59,3.85,19.33,7.48,29.22,10.78,19.73,6.73,39.81,12.74,60.24,17.55,40.75,10.06,82.53,16.16,124.49,20a1000.42,1000.42,0,0,0,126.56,3.16c42.28-1.25,84.51-5.63,126.46-11.9,10.46-1.71,21-3,31.43-5l31.32-5.85c10.46-1.82,20.76-4.52,31.16-6.73,10.35-2.4,20.8-4.44,31-7.32l30.88-8.1c10.34-2.53,20.43-6,30.66-8.95,10.18-3.16,20.46-6,30.58-9.31L2030,2471.5l15.18-5.09,15-5.59,30-11.25c10.07-3.58,19.82-8,29.72-12l29.62-12.29c19.64-8.49,38.73-18.15,58.84-25.75,19.81-8.27,40.14-15.55,62.36-19.69a.17.17,0,0,1,.2.13.17.17,0,0,1-.05.15c-16,15.64-34,28.18-52.47,39.65-9.41,5.43-19.06,10.4-28.79,15.2s-19.39,9.73-29.22,14.33l-29.66,13.46c-9.93,4.4-19.7,9.18-29.81,13.16l-30.15,12.44-15.09,6.18-15.29,5.69c-81.39,30.75-165.68,54.84-252,69.21-86.23,14.67-174.55,19.42-262.29,12.07a840.31,840.31,0,0,1-130.43-21.35c-21.5-5.16-42.73-11.6-63.74-18.87-10.51-3.62-20.88-7.77-31.21-12.12-5.16-2.21-10.29-4.48-15.43-6.92-2.57-1.23-5.13-2.42-7.72-3.76s-5-2.55-8.09-4.28a19.11,19.11,0,0,1,18.22-33.6Z"/><path class="cls-20" d="M2478.11,2241.32S2569.3,2445,2699.23,2545s198.42,182.62,133.45,354.69"/><path class="cls-20" d="M2752.55,3285.76a128,128,0,0,0,77.92-84.59c120.61-419.66-214.31-619.12-371.79-506.88-165.06,117.65,27.07,368.74,27.07,368.74s-207.93,70.82-190.37,240.56C2309.23,3437.47,2621.33,3335,2752.55,3285.76Z"/><path class="cls-20" d="M2485.75,3063s221.7-15.29,239.54,232.75"/><path class="cls-20" d="M2717.79,2559.6s81.53-62.43,106.11-155.26,172.08-133.16,184.37,68.74-158.49,371.16-158.49,371.16"/><path class="cls-20" d="M1726.21,3386.55c-62.68-23.55-95.67-92.64-72.42-155.44,13.67-36.92,42.66-73.79,100.78-96.09,140.72-54-8.29-429.75,230.82-446.57,44.72-3.14,88.85,14.53,117.9,48.69,55.21,64.92,115.72,212.54,17.63,528.7a157.4,157.4,0,0,1-63.85,85C1994.79,3391.72,1876.7,3443.08,1726.21,3386.55Z"/><path class="cls-20" d="M1773.16,3124.89s309-50.94,283.91,226"/><path class="cls-20" d="M2123.93,3256s85.51,4.76,175.45-15.1"/><path class="cls-21" d="M2659.72,3129.7s-114.13,49.61-127.08,223.58"/><path class="cls-21" d="M2485.75,3063s-152.85,108-124.5,302.78"/><path class="cls-21" d="M2013.23,3186.56s-122.67,28.94-110.77,222.23"/><path class="cls-21" d="M1835.34,3121.21s-166.75,58-109.13,265.34"/><path class="cls-20" d="M1335.12,2606.5s7.05,409.91,350.79,572.81"/><path class="cls-20" d="M1436.79,2949.42s22.79,82.59-31.06,143.46c-51,57.7-179.1,247,35.72,271.25,25.55,2.89,51.36,1.63,77-.1,39.3-2.64,112-7.86,157-13.14"/><path class="cls-20" d="M1405.73,3092.88s169.9-19.3,248.06,138.23"/><path class="cls-21" d="M1603.71,3161.62s-97.73,63.71-60.79,200.73"/><path class="cls-21" d="M1487.93,3099.69s-139.53,90.91-109.67,249.08"/><path class="cls-21" d="M1540.35,2659.1s10.62,277.59,147.54,518.11"/><path class="cls-21" d="M2958.35,2343.2S3015.64,2558.81,2844,2707"/><circle class="cls-18" cx="1498.27" cy="2710.1" r="17.53" transform="translate(-1477.49 1853.21) rotate(-45)"/><circle class="cls-18" cx="1701.68" cy="3108.56" r="17.53"/><ellipse class="cls-11" cx="1379.98" cy="1458.47" rx="87.5" ry="61.59" transform="translate(-573.08 1924.33) rotate(-60)"/><path class="cls-11" d="M1907.81,1615a385.38,385.38,0,0,0-51.08-9.57,291.66,291.66,0,0,0-50.43-1.5c-8.3.27-16.41,1.6-24.54,2.56l-12,2.45c-2,.47-4,.7-6,1.27l-5.85,1.71c-15.82,3.92-30.52,11-45.11,18.39l-8.5-36.27c1.53.14,2.52.29,3.58.43s2.12.3,3.11.49c2,.36,4,.72,5.93,1.18,3.91.8,7.68,1.85,11.46,2.87a190.74,190.74,0,0,1,21.94,7.88,176,176,0,0,1,39.76,23.52c12,9.67,23.13,20.32,31.84,32.79,9.31,12,15.92,25.65,21.34,39.29a6.69,6.69,0,0,1-11.18,7l-.52-.58c-4.67-5.18-8.65-10.67-13.32-15.54s-9.15-9.78-14.26-14c-4.77-4.58-10.18-8.36-15.25-12.41-2.54-2-5.42-3.62-8.08-5.45l-4-2.66-4.26-2.33a177.75,177.75,0,0,0-35-15.7c-3-1-6.11-1.84-9.14-2.77l-9.21-2.28c-3.08-.63-6.15-1.3-9.19-1.73-1.54-.28-3-.44-4.5-.62-.75-.1-1.47-.2-2.13-.25l-1.67-.15-.69-.06a19.41,19.41,0,0,1-7.82-36.21c17.14-9.71,35.13-18.67,54.52-23.24a96.43,96.43,0,0,1,14.49-3.3l14.66-2.3c9.85-.57,19.68-1.53,29.46-.78a207.25,207.25,0,0,1,57,10.27c18.21,6.23,35.34,14.18,51,25.89a6.73,6.73,0,0,1-5.68,11.91Z"/><g class="cls-25"><ellipse class="cls-26" cx="1788.32" cy="1631.5" rx="667.59" ry="603.08" transform="translate(-384.18 2699.27) rotate(-68.55)"/></g><ellipse class="cls-27" cx="1373.72" cy="1391.66" rx="667.59" ry="603.08" transform="translate(-423.93 2161.27) rotate(-68.55)"/><ellipse class="cls-28" cx="1685.7" cy="1381.97" rx="153.45" ry="361.07" transform="translate(-73.8 2668.65) rotate(-75.52)"/><path class="cls-11" d="M1869.48,1924.17c-132.8,0-193.45-62-257.42-127.4-83.3-85.15-177.71-181.67-460.14-186.16a16.39,16.39,0,0,1,.26-32.78h.26c295.91,4.71,399.68,110.79,483.05,196,68.67,70.2,122.91,125.66,262,116.61,135.55-8.8,217.84-77.1,251.57-208.81,30.7-119.91-9.29-244.21-109.71-341.05-209.6-202.12-617.67-163.17-621.76-162.74a16.39,16.39,0,0,1-3.34-32.61c4.33-.44,107.6-10.68,239.37,4.93,122.46,14.51,292.75,55.22,408.48,166.82,109.15,105.26,152.42,241.13,118.71,372.78-37.17,145.17-131.78,223.69-281.2,233.39Q1884,1924.19,1869.48,1924.17Z"/></g></g></svg>