<?xml version="1.0" encoding="utf-8"?>
<!-- Generator: Adobe Illustrator 25.2.1, SVG Export Plug-In . SVG Version: 6.00 Build 0)  -->
<svg version="1.1" id="Capa_1" xmlns="http://www.w3.org/2000/svg" xmlns:xlink="http://www.w3.org/1999/xlink" x="0px" y="0px"
	 viewBox="0 0 2335.9 2834.9" style="enable-background:new 0 0 2335.9 2834.9;" xml:space="preserve">
<style type="text/css">
	.st0{opacity:0.3;fill:#000072;enable-background:new    ;}
	.st1{fill:#494E7A;}
	.st2{fill:url(#SVGID_1_);}
	.st3{fill:url(#SVGID_2_);}
	.st4{fill:url(#SVGID_3_);}
	.st5{fill:url(#SVGID_4_);}
	.st6{fill:url(#SVGID_5_);}
	.st7{fill:url(#SVGID_6_);}
	.st8{fill:#00A4FF;}
	.st9{opacity:0.6;fill:#FFFFFF;enable-background:new    ;}
	.st10{opacity:0.7;}
	.st11{fill:#00CFFF;}
	.st12{opacity:0.7;fill:#00CFFF;enable-background:new    ;}
	.st13{opacity:0.6;}
	.st14{opacity:0.7;fill:#FFFFFF;enable-background:new    ;}
	.st15{fill:#000072;}
	.st16{fill:none;stroke:#00CFFF;stroke-width:21.85;stroke-miterlimit:10;}
	.st17{fill:none;stroke:#000072;stroke-width:38.24;stroke-linejoin:round;}
	.st18{fill:none;stroke:#000072;stroke-width:27.31;stroke-linejoin:round;}
	.st19{fill:none;stroke:#000072;stroke-width:38.5;stroke-linejoin:round;}
	.st20{fill:none;stroke:#000072;stroke-width:38.24;stroke-linecap:round;stroke-miterlimit:10;}
	.st21{fill:none;stroke:#000072;stroke-width:38.24;stroke-miterlimit:10;}
	.st22{fill:url(#SVGID_7_);}
	.st23{opacity:0.2;fill:#00CFFF;enable-background:new    ;}
	.st24{clip-path:url(#SVGID_10_);}
	.st25{fill:url(#SVGID_11_);}
</style>
<g>
	<g id="Layer_1">
		<path class="st0" d="M1340.1,2463.2c-479.2,0-867.6,76.2-867.6,170.2c0,4.1,0.8,8.1,2.2,11.9c-1.9,82.9,200.9,165.4,456.9,185.2
			c136.4,10.5,260.6,1.2,348.5-22.3c11.8-3.2,23.9-4.7,36.1-4.7c8,0.1,16,0.1,24,0.1c479.2,0,867.6-76.2,867.6-170.2
			S1819.2,2463.2,1340.1,2463.2z"/>
		<path class="st1" d="M1792.1,1367.8c-95.2,93.2-174.6,59.5-227.6,9c-51.6-49.3-79.6-118-81.6-189.4
			c-6.4-241.4,192.5-279.7,197-280.6l-61.6,92.4l0.1,0.1c-35.4,40-57.6,98.5-57.6,163.7c0,120.9,76.5,218.9,170.9,218.9
			C1752.6,1381.8,1773.3,1377,1792.1,1367.8z"/>
		<path class="st1" d="M1716.7,1608.4c-5.1,12.9-12.8,24.6-22.4,34.6c-266.9,274.7-668.8,383.8-915.3,383.2
			c-101.6-0.2-176.7-19.1-205.2-52.6c-99.9-117.7-47.6-226.5-47.6-226.5c408.9,204.5,959.5,47.1,1183.1-230.5v0.1
			c3.8,6.1,6.9,12.6,9.4,19.4C1726.7,1559.6,1726.1,1585.3,1716.7,1608.4z"/>
		
			<linearGradient id="SVGID_1_" gradientUnits="userSpaceOnUse" x1="2322.28" y1="1038.12" x2="2664.1399" y2="1038.12" gradientTransform="matrix(1 0 0 -1 -761.46 2201.05)">
			<stop  offset="0" style="stop-color:#FFFFFF"/>
			<stop  offset="1" style="stop-color:#A3A7CC"/>
		</linearGradient>
		<path class="st2" d="M1867.7,1030.2c-31.2-52.4-80.5-86.1-135.9-86.1c-43.5,0-83.2,20.9-113.4,55.2c-35.4,40-57.6,98.5-57.6,163.7
			c0,120.9,76.5,218.9,170.9,218.9c20.9,0,41.5-4.8,60.3-14c56.1-27,98-90.7,108.2-168.2c1.6-12.2,2.4-24.4,2.4-36.7
			C1902.7,1113.1,1889.6,1067.1,1867.7,1030.2z M1737.2,1273.9c-19.9,0-38.3-8.6-52.9-23.1c-20.5-20.3-33.8-52.1-33.8-87.8
			c0-61.3,38.8-111,86.6-111c20.8,0,39.8,9.3,54.9,25v0.1c19.4,20.3,31.8,51.2,31.8,85.9C1823.9,1224.2,1785.1,1273.9,1737.2,1273.9
			L1737.2,1273.9z"/>
		
			<radialGradient id="SVGID_2_" cx="1587.76" cy="1488.23" r="1487.91" gradientTransform="matrix(1 0 0 -1 -761.46 2201.05)" gradientUnits="userSpaceOnUse">
			<stop  offset="0" style="stop-color:#FFFFFF"/>
			<stop  offset="0.21" style="stop-color:#FBFBFD"/>
			<stop  offset="0.42" style="stop-color:#EFF0F6"/>
			<stop  offset="0.63" style="stop-color:#DCDDEB"/>
			<stop  offset="0.83" style="stop-color:#C0C3DC"/>
			<stop  offset="1" style="stop-color:#A3A7CC"/>
		</radialGradient>
		<path class="st3" d="M1564.5,1376.8c-51.6-49.3-79.6-118-81.6-189.4c-5.4-200.5,131-260.9,179.9-276.1c0.8-0.2,1.5-0.4,2.2-0.7
			c0.1-0.1,0.3-0.2,0.4-0.2c6.7-2,11.5-3.1,13.4-3.4c0.3,0,0.7-0.2,1-0.2l98.5-147.7l-4-2.7c-76.2-161.2-257.4-396.1-665.5-393
			c-8.7,0.1-17.3,0.2-25.7,0.5c-232,8-376.3,99.3-473.6,211.2l-5.5,6.4c-147.6,174.2-184.7,394.8-261.9,430.3
			c-129.9,59.7-193.1,120.6-193.1,120.6s-43.3,161.7,61.7,340.3 M210.9,1472.8c55,93.7,150.9,192.1,315.2,274.2
			c408.9,204.5,959.5,47.1,1183.1-230.5c37.6-46.6,65.9-96.6,82.9-148.8c-95.2,93.2-174.7,59.5-227.6,9L210.9,1472.8z M652.5,1718.9
			c-85,59.9-145.6-28-179.4-103.4c-12.6-28.3-23.1-57.5-31.2-87.4c110.6-11.8,157.3-59.7,176.4-104.5c0,0,127.8,148.4,74.2,251
			C684,1690.8,671.1,1705.8,652.5,1718.9L652.5,1718.9z"/>
		
			<linearGradient id="SVGID_3_" gradientUnits="userSpaceOnUse" x1="2580.9651" y1="174.4291" x2="2682.8052" y2="-436.6209" gradientTransform="matrix(1 0 0 -1 -761.46 2201.05)">
			<stop  offset="0" style="stop-color:#FFFFFF"/>
			<stop  offset="1" style="stop-color:#A3A7CC"/>
		</linearGradient>
		<path class="st4" d="M2069,2568.2c-11.1,38.9-40.1,70.3-77.9,84.6c-8.4,3.2-17.5,6.5-27.3,10c-5.7-79.1-32.1-131.4-65.6-166
			c-71.2-73.8-174-66.7-174-66.7s-192.1-251-27-368.8c111.6-79.5,312.1-2.6,376.7,198.1C2100.7,2342.1,2104.2,2445.8,2069,2568.2z"
			/>
		
			<linearGradient id="SVGID_4_" gradientUnits="userSpaceOnUse" x1="1911.5575" y1="106.8596" x2="2037.9774" y2="-493.6505" gradientTransform="matrix(1 0 0 -1 -761.46 2201.05)">
			<stop  offset="0" style="stop-color:#FFFFFF"/>
			<stop  offset="1" style="stop-color:#A3A7CC"/>
		</linearGradient>
		<path class="st5" d="M1362.5,2623.1c-1,3.2-2,6.6-3,9.8c-10.8,34.9-33.3,65-63.9,85.1c7.1-77.9-12.3-129.9-43.9-164.3
			c-48-52.6-124.3-64.4-178-65.3c-35.2-0.6-60.6,3.4-62,3.7c108.5-79.7-15.2-420.5,212.2-436.5c44.7-3.1,88.8,14.5,117.9,48.7
			C1396.4,2168.5,1456.3,2313.7,1362.5,2623.1z"/>
		
			<linearGradient id="SVGID_5_" gradientUnits="userSpaceOnUse" x1="2076.2605" y1="382.7817" x2="2150.0005" y2="-502.1883" gradientTransform="matrix(1 0 0 -1 -761.46 2201.05)">
			<stop  offset="0" style="stop-color:#FFFFFF"/>
			<stop  offset="1" style="stop-color:#A3A7CC"/>
		</linearGradient>
		<path class="st6" d="M2088.4,2211.2c-3.9,16.3-8.7,32.4-14.4,48.2c-29.6-92-87.8-158-152.9-194.8c-76.9-43.5-163.4-46.3-223.9-3.3
			c-14.1,9.9-26.6,21.9-37,35.7c-94.2,126.2,64.1,333.1,64.1,333.1c0,0-0.1,0.1-0.2,0.1c-5.2,1.8-156.5,55.3-186.2,177.9
			c-90,19.8-175.5,15.1-175.5,15.1c93.9-309.4,34-454.6-20.6-518.9c-29-34-72.8-51.6-117.3-48.7c-0.2,0-0.4,0-0.6,0.1
			c-227.4,16-103.7,356.8-212.2,436.5h-0.1c-5.7,4.2-12,7.6-18.6,10.1c-28.8,11-50.5,25.7-66.7,42.2c-0.7,0.7-1.4,1.4-2,2.1
			c-118.5-56.2-197-141.7-249-229.7c0-0.1-0.1-0.1-0.1-0.2c-98.7-167.1-101.7-342.9-101.7-342.9c0,0,0,0.1,0.1,0.1
			c28.6,33.5,103.7,52.3,205.2,52.5c246.5,0.5,648.5-108.6,915.3-383.2c9.7-9.9,17.3-21.7,22.4-34.6c0,0,91.1,203.7,221,303.7
			c6.3,4.9,12.6,9.7,18.6,14.5c60.2,48,105,93,126.2,147.4C2097.8,2113.3,2100.8,2157.5,2088.4,2211.2z"/>
		
			<linearGradient id="SVGID_6_" gradientUnits="userSpaceOnUse" x1="1438.8881" y1="391.7697" x2="1610.968" y2="-724.9703" gradientTransform="matrix(1 0 0 -1 -761.46 2201.05)">
			<stop  offset="0" style="stop-color:#FFFFFF"/>
			<stop  offset="1" style="stop-color:#A3A7CC"/>
		</linearGradient>
		<path class="st7" d="M924.4,2546.3c-14.1,14.9-25,32.6-32.1,51.8c-14.2-28.6-31.4-51.4-50.1-69.5c-36.9-35.9-79.6-53.5-115.8-61.9
			c-46.3-10.9-82.2-6.8-82.2-6.8c53.9-60.9,31-143.5,31-143.5C727.3,2404.5,805.8,2490.1,924.4,2546.3z"/>
		<path class="st8" d="M2176.5,577.6c-44,122-103.4,234.9-150.1,314.9c-25.7,44.1-47.6,78.3-60.9,98.4
			c-10.8,16.5-26.5,29.1-44.9,36.2c-10.7,4.1-22.1,6.1-33.5,5.8c-6.6-0.2-13.2-1.1-19.6-2.7c-31.2-52.4-80.5-86.1-135.9-86.1
			c-43.5,0-83.2,20.9-113.4,55.2l-0.1-0.1l55.3-82.9l6.3-9.4l98.5-147.7l350.7-525.7C2129.1,233.4,2260.9,344,2176.5,577.6z"/>
		<path class="st8" d="M1900.3,1199.6c1.6-12.2,2.4-24.4,2.4-36.7c0-49.9-13.1-95.9-35-132.7c6.4,1.6,13,2.5,19.6,2.7
			c31.5,0.9,61-15.7,78.4-42c13.3-20.1,35.1-54.2,60.9-98.4l288.8-93.6C2315.3,798.9,2364.9,1099.9,1900.3,1199.6z"/>
		<path class="st8" d="M1823.9,1162.9c0,61.2-38.8,110.9-86.6,110.9c-19.9,0-38.3-8.6-52.9-23.1c-20.5-20.3-33.8-52.1-33.8-87.8
			c0-61.3,38.8-111,86.6-111c20.8,0,39.8,9.3,54.9,25v0.1C1811.4,1097.4,1823.9,1128.3,1823.9,1162.9z"/>
		<path class="st8" d="M1083.3,364c-232,8-376.3,99.3-473.6,211.2l473.6-555.9C1083.3,19.2,1230.8,214.6,1083.3,364z"/>
		<path class="st9" d="M788.9,434.1L1108,59.5c-13.3-25.1-24.8-40.3-24.8-40.3L609.7,575.1C656.8,520.9,715,471.5,788.9,434.1z"/>
		<path class="st8" d="M652.5,1718.9c-137,96.6-210.7-190.8-210.7-190.8c110.6-11.8,157.3-59.7,176.4-104.5
			C618.2,1423.6,789.4,1622.4,652.5,1718.9z"/>
		<path class="st8" d="M1963.8,2662.8c-52.8,19.1-123.7,42.2-192.6,57.5c-64.1,14.3-126.6,21.7-171.4,12.6v-0.1
			c-37.1-7.5-62.2-26.4-65.8-62.2c-2.3-21-0.9-42.2,4-62.7c29.7-122.5,181-176.1,186.2-177.9c0.1,0,0.1,0,0.2-0.1
			c0,0,102.8-7.1,174,66.7C1931.7,2531.4,1958.1,2583.7,1963.8,2662.8z"/>
		<path class="st8" d="M1295.6,2718c-35.1,23.1-88.1,49.4-154.6,57.9c-51.3,6.6-110.7,2.4-176.3-22.2c-19.7-7.3-37.1-19.6-50.7-35.6
			c-27.4-32.2-37.4-77.4-21.6-119.8c7.1-19.3,18-36.9,32.1-51.8c0.7-0.7,1.4-1.4,2-2.1c16.2-16.4,37.9-31.1,66.7-42.2
			c6.6-2.5,12.9-5.9,18.6-10.1h0.1c1.4-0.2,26.8-4.3,62-3.7c53.6,1,130,12.8,178,65.3C1283.3,2588.1,1302.7,2640.1,1295.6,2718z"/>
		<path class="st8" d="M914,2718c-36.7,4.3-92,8.6-132.5,11.4c-9,0.6-17.3,1.2-24.4,1.7c-25.7,1.8-51.5,3-77,0.1
			c-25.8-2.9-46.6-8.2-63.2-15.4c-122-52.4-17.5-205.1,27.5-255.9c0,0,35.8-4.1,82.2,6.8c36.2,8.5,78.9,26.1,115.8,61.9
			c18.7,18.1,35.9,40.9,50.1,69.5C876.6,2640.6,886.5,2685.8,914,2718z"/>
		<path class="st8" d="M1963.8,2662.8c-52.8,19.1-123.7,42.2-192.6,57.5c-64.1,14.3-126.6,21.7-171.4,12.6v-0.1
			c-37.1-7.5-62.2-26.4-65.8-62.2c-2.3-21-0.9-42.2,4-62.7c29.7-122.5,181-176.1,186.2-177.9c0.1,0,0.1,0,0.2-0.1
			c0,0,102.8-7.1,174,66.7C1931.7,2531.4,1958.1,2583.7,1963.8,2662.8z"/>
		<path class="st8" d="M2088.4,2211.2c12.4-53.7,9.4-97.9-5.9-137.2c-21.1-54.5-66-99.5-126.2-147.4c0,0,81.6-62.4,106.1-155.2
			c16.2-61,85.4-99.3,134.4-61.1c25.6,19.9,45.7,60.6,49.9,129.9C2259,2040.5,2090.9,2208.7,2088.4,2211.2z"/>
		<path class="st0" d="M1792.1,1367.8c-16.9,52.2-45.2,102.2-82.9,148.8c-223.6,277.6-774.2,434.9-1183.1,230.5
			c-164.3-82.2-260.2-180.5-315.2-274.2c3.1,2.5,101.8,81.3,262.2,142.7c33.8,75.4,94.4,163.3,179.4,103.4
			c18.6-13.1,31.5-28.1,40-44.3c138.7,22.1,299.6,18.7,472-39.4c156.8-52.9,263.6-200.1,265.8-365.6
			c1.9-140.1,46.3-306.1,232.6-358.4c-48.9,15.2-185.3,75.6-179.9,276.1c1.9,71.4,29.9,140.2,81.6,189.4
			C1617.4,1427.3,1696.9,1461,1792.1,1367.8z"/>
		<path class="st0" d="M1777,761.3l-96.9,145.2l-0.6,0.4c-4.7,0.9-9.4,2.1-14,3.6c-0.2,0-0.3,0.1-0.4,0.2c-0.7,0.2-1.5,0.4-2.2,0.7
			c-28.7,9.1-55.7,22.9-79.8,41.1c1.8-2.4,25.5-40,25.8-40.1l0,0c70.8-103.1,61-242.3-25.5-332.6
			c-109.1-113.8-281.2-212.8-545.5-210.8c-8.7,0-17.3,0.2-25.7,0.5c-0.6,0-1,0.1-1.6,0.1c23.2-2.7,47.4-4.7,72.6-5.5
			c8.5-0.3,17-0.5,25.7-0.5c408.1-3.1,589.3,231.8,665.5,393.1L1777,761.3z"/>
		<path class="st0" d="M1723.2,1583.4c0.2-1.3,0.3-2.5,0.4-3.8c0.2-1.6,0.3-3.1,0.4-4.7c0.1-1.1,0.1-2.3,0.2-3.5
			c0-2.6,0-5.2-0.1-7.8c0-0.7-0.1-1.3-0.2-2c-0.2-2.1-0.4-4.2-0.7-6.4c-0.1-0.9-0.3-1.9-0.5-2.9c-0.3-1.9-0.7-3.9-1.2-5.8
			c-0.2-0.9-0.4-1.7-0.6-2.6c-0.7-2.7-1.5-5.4-2.4-8.1c-0.6-1.8-1.3-3.5-2-5.2l0,0c-2.1-4.9-4.5-9.6-7.3-14.2v-0.1
			c-223.7,277.6-774.3,435-1183.2,230.5c0,0-11.3,23.7-13.3,60.9v-0.1c0,0.6,0,1.2-0.1,1.7c-0.1,1.4-0.1,2.9-0.2,4.4s0,3-0.1,4.5
			s0,3,0,4.5s0.1,3.2,0.2,4.9s0.1,3,0.2,4.5c0.1,1.8,0.3,3.6,0.4,5.4c0.1,1.1,0.2,2.3,0.3,3.4c0-0.1,0-0.1,0-0.2
			c4,38.2,19.4,84.7,60.1,132.6c28.5,33.5,103.6,52.4,205.2,52.6c246.5,0.5,648.5-108.6,915.3-383.2c13.8-14.2,23.4-32.1,27.6-51.4
			l0,0c0.2-1.2,0.4-2.3,0.6-3.5C1722.8,1586.5,1723,1584.9,1723.2,1583.4z M773.4,1966.1c-101.6-0.2-176.7-19.1-205.2-52.6
			c-27-31.8-42.8-63-51.6-91.6c4-19.6,9.5-31.1,9.5-31.1c329.3,164.7,750.4,94.6,1018.8-83.8
			C1291.7,1890.8,978.7,1966.5,773.4,1966.1z"/>
		<path class="st0" d="M1223.9,2055.5c-227.4,16-103.7,356.8-212.2,436.5h-0.1c-5.7,4.2-12,7.6-18.6,10.1
			c-28.8,11-50.5,25.7-66.7,42.2c-0.7,0.7-1.4,1.4-2,2.1c-118.5-56.2-197-141.7-249-229.7c4.4,4.8,127.7,139.9,209.4,123.4
			C1073.9,2402,959.6,2051.4,1223.9,2055.5z"/>
		<path class="st0" d="M1724.3,2430.1c0,0-0.1,0.1-0.2,0.1c-5.2,1.8-156.5,55.3-186.2,177.9c-90,19.8-175.5,15.1-175.5,15.1
			c93.9-309.4,34-454.6-20.6-518.9c-29-34-72.8-51.6-117.3-48.7c12.6-1.7,243.8-25.9,234.5,412.2c-0.4,16.6,12.5,31,29.1,31.3
			c8.5,0.2,19.1-1.3,31.7-5.9c38.4-13.9,37.8-46.7,88.3-75.2c12.4-7.1,18.2-21.8,14-35.5c-19.2-63.8-58.9-232.5,38.1-285.4
			C1566,2223.2,1724.3,2430.1,1724.3,2430.1z"/>
		<path class="st0" d="M1384.9,2167.9c8.7,82.3-0.6,193.7-46.1,343.9c-1,3.2-2,6.6-3,9.8c-10.8,34.9-33.4,65-63.9,85.1
			c-35.1,23.1-88.1,49.4-154.6,57.9c-51.4,6.6-110.7,2.4-176.3-22.2c-17.2-6.4-32.8-16.6-45.6-29.9c-11,39.5-0.7,80.5,24.7,110.2
			c13.6,16,31.1,28.3,50.8,35.6c65.6,24.6,124.9,28.8,176.3,22.2c66.5-8.4,119.5-34.8,154.6-57.9c30.5-20.1,53.1-50.1,63.9-85.1
			c1-3.3,2-6.6,3-9.8C1440.7,2390.2,1422.1,2249.6,1384.9,2167.9z"/>
		<path class="st0" d="M884.9,2640.3c-35.2,3.6-79.7,7-113.8,9.4c-9,0.6-17.3,1.2-24.4,1.7c-25.7,1.8-51.5,3-77,0.1
			c-25.8-2.9-46.6-8.2-63.2-15.4c-20-8.6-33.9-19.9-43-33c-10.6,45.6-1.4,89.1,53.3,112.6c16.6,7.2,37.4,12.4,63.2,15.4
			c25.5,2.9,51.3,1.6,77-0.1c7.2-0.5,15.4-1,24.4-1.7c40.5-2.8,95.8-7.2,132.5-11.4C895.4,2696.3,885.1,2668.8,884.9,2640.3z"/>
		<path class="st0" d="M2073.9,2259.4c-27.2-84.5-78.6-147-137.2-185.1c30.2,34.4,55.3,77.3,71.7,128.2
			c26.7,82.6,30.3,186.4-4.9,308.8c-11.2,38.9-40.1,70.3-78,84.6c-8.4,3.2-17.5,6.5-27.2,10c-52.8,19.1-123.7,42.2-192.6,57.5
			c-63.9,14.2-126.3,21.6-171,12.6c5.5,32.3,29.8,49.7,65.1,56.8v0.1c44.8,9.1,107.3,1.7,171.4-12.6
			c68.9-15.3,139.8-38.5,192.6-57.5c9.7-3.5,18.8-6.8,27.3-10c37.9-14.3,66.8-45.6,77.9-84.6
			C2104.2,2445.8,2100.7,2342.1,2073.9,2259.4z"/>
		<path class="st0" d="M2088.4,2211.2c-3.9,16.3-8.7,32.4-14.4,48.2c-29.6-92-87.8-158-152.9-194.8c19.1-27.4,13.6-61-41.9-98.5
			c-21.2-14.4-41.6-33.8-60.5-55.3c-75-85.6-201-104.2-297.9-44.5c-101,62.2-247.4,133.6-447,188.4
			c-441.8,121.3-498.9-76.3-500.2-81c28.6,33.5,103.7,52.3,205.2,52.5c246.5,0.5,648.5-108.6,915.3-383.2
			c9.7-9.9,17.3-21.7,22.4-34.6c0,0,91.2,203.7,221.1,303.7c6.3,4.9,12.6,9.7,18.6,14.5c60.2,48,105,93,126.2,147.4
			C2097.8,2113.3,2100.8,2157.5,2088.4,2211.2z"/>
		<path class="st0" d="M2246.8,1840.2c-3.7-61-19.8-99.9-41.1-121.9c0.9,7.8,1.7,16,2.2,24.6c8.7,143.5-64.2,272.3-119.7,348.5
			c10,34.9,10.7,73.9,0.1,119.9C2090.9,2208.7,2259,2040.5,2246.8,1840.2z"/>
		<path class="st0" d="M620,1425.7L620,1425.7l-0.9-1l-0.2-0.2l-0.7-0.8c-0.7,1.6-1.4,3.2-2.2,4.8c-0.2,0.5-0.4,0.9-0.7,1.4
			c-0.6,1.1-1.1,2.3-1.7,3.5c-0.3,0.5-0.5,1-0.8,1.5c-0.6,1.2-1.3,2.4-2,3.6c-0.2,0.4-0.5,0.8-0.7,1.2c-1.9,3.3-4,6.6-6.3,9.9
			l-0.3,0.5c-1,1.5-2.1,2.9-3.2,4.4l-0.7,0.9c-1,1.3-2.1,2.7-3.2,4l-0.7,0.9c-1.3,1.6-2.7,3.1-4.1,4.7
			c-27.4,29.7-73.3,55.2-149.8,63.3c0,0,26.1,101.7,76.1,163.8c-35.4-59.7-53.7-131.2-53.7-131.2c46.1-4.9,81.2-16.1,107.7-30.8
			c25.6-14.1,58-3.4,68.6,23.9c23.4,60.3,29,130.5-37,177c-3.9,2.8-8,5.3-12.1,7.6c18.7,1.6,39.1-4,61.1-19.6
			C781.3,1628.1,637.5,1446.9,620,1425.7z"/>
		<path class="st0" d="M1867.7,1030.2c-13-21.9-29.3-40.5-47.8-54.7c13.1,32.3,19.7,66.8,19.5,101.6c0,12.3-0.8,24.5-2.4,36.7
			c-2.5,18.9-7,37.5-13.4,55.4c-2.4,55.6-36.6,100.2-79.8,104.4c-4.8,3.1-9.8,5.9-14.9,8.4c-18.8,9.2-39.4,14-60.3,14
			c-32.2,0-62.4-11.4-88.1-31.3c28.6,69.7,85.6,117.2,151.4,117.2c20.9,0,41.5-4.8,60.3-14c56.1-27,98-90.7,108.2-168.2
			c1.6-12.2,2.4-24.4,2.4-36.7C1902.7,1113.1,1889.6,1067.1,1867.7,1030.2z"/>
		<path class="st0" d="M1792.1,1077.1L1792.1,1077.1c-8.5-9.1-19-16.1-30.6-20.5c10.3,19.4,15.6,41.1,15.5,63.1
			c0,61.2-38.8,110.9-86.6,110.9c-8.3,0-16.5-1.6-24.3-4.5c4.9,9.1,11,17.5,18.3,24.8c14.6,14.5,32.9,23.1,52.9,23.1
			c47.9,0,86.6-49.7,86.6-110.9C1823.9,1128.3,1811.4,1097.4,1792.1,1077.1z"/>
		<path class="st0" d="M1731.8,1381.8c-51.9,0-98.3-29.6-129.7-76.4c-21.2-9.1-40.2-23.2-56.6-38.8c-27.5-26.4-48.9-58.6-62.5-94.3
			c0,5-0.1,9.9,0,15c1.9,71.4,29.9,140.2,81.6,189.4c52.9,50.5,132.4,84.2,227.6-9C1773.3,1377,1752.7,1381.8,1731.8,1381.8z"/>
		<path class="st0" d="M2315.3,798.8l-10.9,3.6c-21.8,96.6-105.4,246.7-406,312.2c5,28.1,5.7,56.7,1.9,85
			C2364.9,1099.9,2315.3,798.8,2315.3,798.8z"/>
		<path class="st0" d="M2129.2,233.4l-8.2,12.3c26,56.3,43.9,146.9-1.9,273.8c-44,122-103.4,234.9-150.1,314.9
			c-25.7,44.1-47.6,78.3-60.9,98.4c-0.1,0.1-0.2,0.2-0.2,0.4c-11.9,17.8-36.8,20.7-53.5,7.2c-31.7-25.6-72.7-24.5-112.9-24.5
			c-25.1,0-90.9,16.4-123.2,83.2l0,0l0.1,0.1c30.1-34.3,69.8-55.2,113.4-55.2c34.4,0,66.4,13,93.3,35.4c1.1,0.9,2.2,1.9,3.2,2.9
			c1.4,1.2,2.8,2.5,4.2,3.8c1.1,1,2.2,2.1,3.3,3.2c1.3,1.3,2.6,2.6,3.9,4c1,1.1,2.1,2.2,3.1,3.4c1.3,1.4,2.6,2.8,3.8,4.3
			c1,1.1,1.9,2.3,2.9,3.4c1.3,1.6,2.6,3.2,3.8,4.8c0.9,1.1,1.7,2.2,2.6,3.4c1.4,1.9,2.7,3.8,4,5.7c0.7,1,1.4,1.9,2,2.9
			c2,2.9,3.9,5.9,5.7,9c6.4,1.6,13,2.5,19.6,2.7c2.6,0.1,5.2,0,7.7-0.2l1.9-0.1c5.2-0.4,10.4-1.4,15.5-2.7l0.7-0.2
			c2.6-0.7,5.1-1.6,7.6-2.5l0,0c18.4-7.1,34.1-19.8,44.9-36.2c13.3-20.1,35.1-54.2,60.9-98.4c46.7-80,106-192.9,150.1-314.9
			C2260.9,344,2129.2,233.4,2129.2,233.4z"/>
		<path class="st0" d="M1083.3,19.2l-10.7,12.5c0.3,0.7,0.7,1.4,1,2.1c57.2,122.7-14.6,266.2-146.6,296
			c-80.2,18.1-178.8,72.6-317.3,245.3l0,0c97.2-111.9,241.6-203.2,473.6-211.2C1230.8,214.6,1083.3,19.2,1083.3,19.2z"/>
		<g class="st10">
			<path class="st11" d="M255.3,1510.3c-105-178.6-61.7-340.3-61.7-340.3s63.2-61,193.1-120.7C464,1013.9,501.1,793.3,648.7,619
				l5.5-6.4c97.2-111.9,241.6-203.2,473.6-211.2c8.5-0.3,17-0.5,25.7-0.6c209.2-1.6,358.7,59.4,465.1,140.9
				c-107.9-99.5-269.4-180.2-509.6-178.4c-8.7,0.1-17.3,0.2-25.7,0.5c-232,8-376.3,99.3-473.6,211.2l-5.5,6.4
				c-147.6,174.2-184.7,394.8-261.9,430.3c-129.9,59.7-193.1,120.6-193.1,120.6s-43.3,161.7,61.7,340.3 M210.9,1472.8
				c34.6,59,85.5,119.8,159.4,177.3c-50.5-46.1-87.7-93.5-114.9-139.8L210.9,1472.8z"/>
		</g>
		<g class="st10">
			<path class="st11" d="M730,2316.6c0-0.1-0.1-0.1-0.1-0.2c-72.6-123-93.4-250.6-99.3-309.5c-25.8-8.5-45.2-19.7-56.9-33.3
				c0,0,0-0.1-0.1-0.1c0,0,3,175.8,101.7,342.9c0,0,0.1,0.1,0.1,0.2c51.9,88,130.4,173.6,249,229.7c0.7-0.7,1.4-1.4,2-2.1
				c5.7-5.7,11.7-11,18.2-15.8C845.1,2472.9,776.8,2395.8,730,2316.6z"/>
		</g>
		<path class="st12" d="M1073.8,2488.3c2,0,4.2,0.1,6.3,0.2c74-104.9-18.8-401.7,193-416.6c10.2-0.7,20.5-0.3,30.6,1.1
			c-24.3-13.4-52-19.5-79.8-17.5c-227.4,16-103.7,356.8-212.2,436.5C1013.2,2491.8,1038.5,2487.7,1073.8,2488.3z"/>
		<path class="st12" d="M1791.1,2437.2L1791.1,2437.2c-37.9-9.2-66.9-7.2-66.9-7.2s-192.1-251-27.1-368.7
			c26.6-19,58.3-28.9,91.9-30.5c-13.3,4.9-25.8,11.4-37.3,19.6C1586.8,2168.1,1791.1,2437.2,1791.1,2437.2z"/>
		<path class="st9" d="M907.5,2638.6c7.1-19.3,18-36.9,32.1-51.8c0.7-0.7,1.4-1.4,2-2.1c16.2-16.4,37.8-31.1,66.7-42.2l0,0
			c15.8-8.1,33.1-12.7,50.8-13.4c8.4-0.3,18.4-0.5,29.8-0.3c53.6,1,130,12.8,178,65.3c9.1,10,17,21.2,23.2,33.2
			c-7.6-30.7-21.2-54.8-38.4-73.7c-48-52.6-124.3-64.4-178-65.3c-35.2-0.6-60.6,3.4-62,3.7h-0.1c-5.7,4.2-12,7.6-18.6,10.1
			c-28.8,11-50.5,25.7-66.7,42.2c-0.7,0.7-1.4,1.4-2,2.1c-14.1,14.9-25,32.6-32.1,51.8c-12.6,34-9.1,71.9,9.7,103
			C898.2,2680.2,900.1,2658.6,907.5,2638.6z"/>
		<path class="st9" d="M913.2,2718.1l0.8-0.1c-0.6-0.7-1.1-1.4-1.6-2C912.6,2716.6,912.9,2717.3,913.2,2718.1z"/>
		<path class="st9" d="M640.4,2521.8c14.7-19.9,38.6-30.8,63.2-28.7c14.2,1.2,28.3,3.4,42.1,6.6c36.2,8.5,78.9,26.1,115.8,62
			c11.5,11.1,21.8,23.4,30.8,36.6c0,0,0-0.1,0-0.1c-14.2-28.6-31.4-51.4-50.1-69.5c-36.9-35.9-79.6-53.5-115.8-61.9
			c-46.3-10.9-82.2-6.8-82.2-6.8c-39.6,44.7-125.4,168.5-61.9,233.2C566.9,2639.2,606.6,2567.7,640.4,2521.8z"/>
		<path class="st9" d="M1549.6,2648.2c29.7-122.5,162.5-168.6,167.7-170.5l0.2-0.1c14.6-5.7,30.4-8,46-6.7
			c35.4,3.1,98.2,16,146.4,66c18.5,19.1,34.8,43.7,46.7,75.2c-11.2-51.7-32.7-88.8-58.4-115.4c-71.2-73.8-174-66.7-174-66.7
			c0,0-0.1,0.1-0.2,0.1c-5.2,1.8-156.5,55.3-186.2,177.9c-4.9,20.5-6.3,41.7-4,62.7c1.3,12.3,5.1,22.5,11,31
			C1543.8,2683.7,1545.4,2665.7,1549.6,2648.2z"/>
		<path class="st9" d="M2129.2,233.4l-350.7,525.7L1680,906.8l-6.3,9.4l-55.3,82.9l0.1,0.1c25.1-28.6,56.9-47.8,92-53.4L1789,828
			l12.8-19.2c4.2-6.3,10.7-10.8,18.1-12.6c21.2-5.1,53.2-34.3,80.3-75.5c26.8-40.6,40.9-81,37.8-102.7c-1-7.2,0.7-14.6,4.8-20.6
			L2129.2,318c4.6-7,14.1-8.9,21.1-4.3c1.1,0.8,2.2,1.7,3.1,2.7c14.6,17.1,37.6,49.8,51.1,98.7
			C2199.3,292.4,2129.2,233.4,2129.2,233.4z"/>
		<path class="st9" d="M2207.7,1720.3c-44.5-10.9-94.1,23.9-107.4,74.3c-24.6,92.9-111.7,158.8-111.7,158.8
			c-10.2-8.9-20.9-17.8-32.2-26.8c0,0,81.6-62.4,106.1-155.2c16.2-61,85.4-99.3,134.4-61.1
			C2200.8,1713.3,2204.4,1716.7,2207.7,1720.3z"/>
		<g class="st13">
			<path class="st14" d="M620.4,1426.2c-1.4-1.7-2.2-2.6-2.2-2.6c-1.4,3.3-3,6.7-4.8,10C615.9,1431.2,618.2,1428.7,620.4,1426.2z"/>
			<path class="st14" d="M679,1682.9c-108.8,76.8-177.8-89-201.5-160.3c-11.1,2.3-23,4.1-35.8,5.5c0,0,73.8,287.4,210.7,190.8
				c20.3-14.3,33.7-30.8,42.1-48.6C689.7,1674.9,684.5,1679.1,679,1682.9z"/>
		</g>
		<path class="st15" d="M1168.7,1335.1c-409.6,49.6-235.3-313.7-826.5-323.1c93.1-42.8,128-355.1,368.8-530.2
			c0,0,386.8-60,631.6,176c110.9,106.9,160.4,264,122.2,413.3C1436.4,1182.4,1352.5,1312.8,1168.7,1335.1z"/>
		<path class="st16" d="M654.5,528.6c0,0,417.1-42.7,634.8,167.2c98.6,95.1,148.2,224.2,114.2,356.9
			c-25.4,99.1-89,209.6-266.4,221.1C811.3,1295,916.5,969.6,390.7,961.3"/>
		<path class="st17" d="M1774.5,756.4c-76.2-161.2-257.4-396.1-665.5-393c-620.4,4.7-636.8,588.8-766.7,648.5
			c-129.9,59.7-193.2,120.6-193.2,120.6S48.4,1508.2,526,1747.1s1148.4-15.8,1266-379.3"/>
		<ellipse class="st17" cx="1731.8" cy="1162.9" rx="170.9" ry="218.9"/>
		<path class="st17" d="M1618.4,999.2l510.8-765.7c0,0,131.7,110.6,47.4,344.1c-68.3,189.2-173.5,356.6-210.9,413.2
			c-17.4,26.3-46.8,42.9-78.4,42c-6.6-0.2-13.2-1.1-19.6-2.7"/>
		<path class="st17" d="M2026.5,892.5l288.8-93.6c0,0,49.6,301-415.1,400.7"/>
		<ellipse class="st18" cx="1737.2" cy="1162.9" rx="86.6" ry="110.9"/>
		<line class="st18" x1="1792" y1="1077" x2="1684.3" y2="1250.7"/>
		<path class="st17" d="M1680,906.8c0,0-203.6,36.4-197.1,280.6c1.9,71.4,29.9,140.2,81.6,189.4c52.9,50.5,132.4,84.2,227.5-9"/>
		<path class="st19" d="M604.2,581.6l479-562.3c0,0,147.5,195.4,0,344.7"/>
		<path class="st15" d="M460.3,1248.6c-22.8,31.1-63.3,67.3-132.7,82.4c-37.1,8.1-76.1,1.5-107.8-19.5c-29.3-19.4-63.2-50.6-79.5-97
			c0.4-50.5,8.8-82,8.8-82s12.5-12.1,37.9-30.8c0,0,145.8-23.5,258.1,56.6C474.2,1179.1,481.4,1219.8,460.3,1248.6z"/>
		<path class="st15" d="M631,1337.6c6.8,13.1,9.9,27.5,10.8,42.2c0.9,15-0.9,30-5.2,44.3c-8.5,29.3-28.3,55.1-51.8,74.2
			c-23.8,19.2-51.5,31.6-79.3,40c-7,2.1-14,3.6-21.1,5.4c-7.1,1.3-14.1,2.9-21.2,4c-7.1,1-14.1,2.1-21.3,2.9
			c-7.3,0.5-14.6,1.4-22,1.6c-14.9,0.2-30-0.2-45.3-3.5c-15.7-2.8-30.8-8.1-44.8-15.7c-14.4-7.6-27.3-17.9-37.8-30.4
			c-10.3-12.1-18.6-25.8-24.9-40.4c-12-28.6-16.1-58.4-17-87.3c-0.2-14.4,0.4-28.7,1.8-43c0.7-7.1,1.7-14.2,2.8-21.2
			c1.2-7.2,2.4-13.8,4.3-21.5c2.5-10.1,12.7-16.2,22.8-13.7c9.3,2.3,15.4,11.3,14.1,20.8l-0.1,0.9c-0.8,5.6-1.6,12.3-2.2,18.6
			s-0.9,12.8-1.3,19.2c-0.6,12.7-0.5,25.5,0.3,38.2c1.5,25.2,6.5,49.7,15.7,71.1c4.6,10.3,10.6,19.8,18,28.3
			c3.5,4.2,7.7,7.7,11.6,11.3l6.6,4.8c2.2,1.6,4.7,2.7,7,4.1c19,10.7,42.8,14.1,67.2,14.1c6.1,0,12.3-0.6,18.5-0.9
			c6.3-0.5,12.7-1.5,19-2.1c6.3-0.9,12.5-2.1,18.8-3.1c6.1-1.4,12.3-2.7,18.4-4.3c6-1.8,12.1-3.2,17.8-5.5c2.9-1.1,5.9-2,8.7-3.1
			l8.4-3.6c11-5.1,21.8-10.8,31.3-17.9c9.5-7,18.1-15.2,25.4-24.4c7.3-9.4,13.6-19.4,18.8-30.1c10.7-21.6,17.8-46.1,22.9-73.4v-0.2
			c0.1-1.1,1.1-1.9,2.2-1.8C630,1336.6,630.7,1337,631,1337.6L631,1337.6z"/>
		<path class="st20" d="M273.7,1318.5c0,0-3.3,116.3-62.9,154.3"/>
		<path class="st21" d="M441.8,1528.1c0,0,73.8,287.4,210.7,190.8s-34.3-295.3-34.3-295.3"/>
		<path class="st15" d="M555.6,1488.6c1.6,1.8,2.5,2.8,3.5,4.2l2.9,3.9c1.8,2.6,3.6,5.1,5.2,7.8c3.3,5.2,6.2,10.6,9,16
			c5.3,10.8,9.9,21.9,13.9,33.3c4,11.2,7.3,22.6,10.2,34.1s5.2,23,7,34.6c0.2,1.3-0.7,2.5-2,2.7c-0.9,0.1-1.9-0.3-2.4-1.1v-0.1
			c-3.1-5-5.9-10-8.8-15c-3.1-4.9-5.8-9.9-8.9-14.8c-6.1-9.7-12.2-19.3-18.6-28.6s-13-18.3-19.6-27c-3.4-4.3-6.7-8.6-10-12.8
			l-4.9-6.1l-4.5-5.2l-0.7-0.8c-6.6-8.2-5.3-20.2,2.9-26.9C537.6,1480.5,548.9,1481.3,555.6,1488.6L555.6,1488.6z"/>
		<path class="st15" d="M240,1442.5c0,0,34.5,160.4,228.4,162.2l-26.6-76.6c0,0-165.6,25.8-173.8-162.3
			C268,1365.8,250.9,1427.9,240,1442.5z"/>
		<path class="st17" d="M526,1747.1c0,0-52.2,108.9,47.6,226.5c97.6,115,743.8,57.2,1120.6-330.6c27.4-28.2,37.5-69.8,24.4-106.9
			c-2.4-6.8-5.5-13.3-9.4-19.4"/>
		<path class="st15" d="M526.9,1848.1c1.6,0.9,4.1,2.1,6.3,3.1s4.6,2.1,6.9,3.2c4.6,2.1,9.4,4.1,14.2,6c9.6,3.9,19.3,7.5,29.2,10.8
			c19.7,6.7,39.8,12.7,60.2,17.6c40.8,10.1,82.5,16.2,124.5,20c42.1,3.7,84.3,4.8,126.6,3.2c42.3-1.2,84.5-5.6,126.5-11.9
			c10.5-1.7,21-3,31.4-5l31.3-5.9c10.5-1.8,20.8-4.5,31.2-6.7c10.4-2.4,20.8-4.4,31-7.3l30.9-8.1c10.3-2.5,20.4-6,30.7-8.9
			c10.2-3.2,20.5-6,30.6-9.3l30.4-10.2l15.2-5.1l15-5.6l30-11.2c10.1-3.6,19.8-8,29.7-12l29.6-12.3c19.6-8.5,38.7-18.1,58.8-25.8
			c19.8-8.3,40.1-15.6,62.4-19.7c0.1,0,0.2,0,0.2,0.1c0,0.1,0,0.1-0.1,0.1c-16,15.6-34,28.2-52.5,39.6c-9.4,5.4-19.1,10.4-28.8,15.2
			s-19.4,9.7-29.2,14.3l-29.7,13.5c-9.9,4.4-19.7,9.2-29.8,13.2l-30.1,12.4l-15.1,6.2l-15.3,5.7c-81.4,30.8-165.7,54.8-252,69.2
			c-86.2,14.7-174.6,19.4-262.3,12.1c-44-3.7-87.6-10.8-130.4-21.4c-21.5-5.2-42.7-11.6-63.7-18.9c-10.5-3.6-20.9-7.8-31.2-12.1
			c-5.2-2.2-10.3-4.5-15.4-6.9c-2.6-1.2-5.1-2.4-7.7-3.8s-5-2.6-8.1-4.3c-9.3-5-12.7-16.6-7.7-25.9c5-9.3,16.6-12.7,25.9-7.7
			L526.9,1848.1z"/>
		<path class="st17" d="M1716.7,1608.4c0,0,91.2,203.7,221.1,303.7s198.4,182.6,133.4,354.7"/>
		<path class="st17" d="M1991.1,2652.8c37.9-14.3,66.8-45.7,77.9-84.6c120.6-419.7-214.3-619.1-371.8-506.9
			c-165.1,117.6,27.1,368.7,27.1,368.7s-207.9,70.8-190.4,240.6C1547.8,2804.5,1859.9,2702.1,1991.1,2652.8z"/>
		<path class="st17" d="M1724.3,2430.1c0,0,221.7-15.3,239.5,232.8"/>
		<path class="st17" d="M1956.3,1926.7c0,0,81.5-62.4,106.1-155.3s172.1-133.2,184.4,68.7s-158.5,371.2-158.5,371.2"/>
		<path class="st17" d="M964.7,2753.6c-62.7-23.6-95.7-92.6-72.4-155.4c13.7-36.9,42.7-73.8,100.8-96.1
			c140.7-54-8.3-429.8,230.8-446.6c44.7-3.1,88.9,14.5,117.9,48.7c55.2,64.9,115.7,212.5,17.6,528.7c-10.8,34.9-33.4,64.9-63.9,85
			C1233.3,2758.8,1115.2,2810.1,964.7,2753.6z"/>
		<path class="st17" d="M1011.7,2491.9c0,0,309-50.9,283.9,226"/>
		<path class="st17" d="M1362.5,2623.1c0,0,85.5,4.8,175.4-15.1"/>
		<path class="st18" d="M1898.3,2496.8c0,0-114.1,49.6-127.1,223.6"/>
		<path class="st18" d="M1724.3,2430.1c0,0-152.9,108-124.5,302.8"/>
		<path class="st18" d="M1251.8,2553.6c0,0-122.7,28.9-110.8,222.2"/>
		<path class="st18" d="M1073.9,2488.3c0,0-166.7,58-109.1,265.3"/>
		<path class="st17" d="M573.7,1973.6c0,0,7.1,409.9,350.8,572.8"/>
		<path class="st17" d="M675.3,2316.5c0,0,22.8,82.6-31.1,143.5c-51,57.7-179.1,247,35.7,271.2c25.6,2.9,51.4,1.6,77-0.1
			c39.3-2.6,112-7.9,157-13.1"/>
		<path class="st17" d="M644.3,2459.9c0,0,169.9-19.3,248.1,138.2"/>
		<path class="st18" d="M842.2,2528.7c0,0-97.7,63.7-60.8,200.7"/>
		<path class="st18" d="M726.5,2466.7c0,0-139.5,90.9-109.7,249.1"/>
		<path class="st18" d="M778.9,2026.2c0,0,10.6,277.6,147.5,518.1"/>
		<path class="st18" d="M2196.9,1710.2c0,0,57.3,215.6-114.4,363.8"/>
		<circle class="st15" cx="736.8" cy="2077.2" r="17.5"/>
		<circle class="st15" cx="940.2" cy="2475.6" r="17.5"/>
		<ellipse transform="matrix(0.5 -0.866 0.866 0.5 -405.663 948.4057)" class="st8" cx="618.5" cy="825.5" rx="87.5" ry="61.6"/>
		<path class="st8" d="M1146.4,982c-16.8-4.3-33.9-7.5-51.1-9.6c-16.7-2-33.6-2.5-50.4-1.5c-8.3,0.3-16.4,1.6-24.5,2.6l-12,2.4
			c-2,0.5-4,0.7-6,1.3l-5.8,1.7c-15.8,3.9-30.5,11-45.1,18.4l-8.5-36.3c1.5,0.1,2.5,0.3,3.6,0.4s2.1,0.3,3.1,0.5
			c2,0.4,4,0.7,5.9,1.2c3.9,0.8,7.7,1.8,11.5,2.9c7.5,2.2,14.8,4.8,21.9,7.9c14.2,6.1,27.6,14,39.8,23.5c12,9.7,23.1,20.3,31.8,32.8
			c9.3,12,15.9,25.6,21.3,39.3c1.4,3.4-0.2,7.3-3.6,8.7c-2.6,1.1-5.7,0.4-7.5-1.7l-0.5-0.6c-4.7-5.2-8.7-10.7-13.3-15.5
			c-4.7-4.9-9.1-9.8-14.3-14c-4.8-4.6-10.2-8.4-15.2-12.4c-2.5-2-5.4-3.6-8.1-5.4l-4-2.7l-4.3-2.3c-11.1-6.5-22.8-11.7-35-15.7
			c-3-1-6.1-1.8-9.1-2.8l-9.2-2.3c-3.1-0.6-6.2-1.3-9.2-1.7c-1.5-0.3-3-0.4-4.5-0.6c-0.8-0.1-1.5-0.2-2.1-0.2l-1.7-0.2l-0.7-0.1
			c-10.7-1-18.5-10.4-17.6-21.1c0.6-6.3,4.2-12,9.7-15.1c17.1-9.7,35.1-18.7,54.5-23.2c4.7-1.5,9.6-2.6,14.5-3.3l14.7-2.3
			c9.9-0.6,19.7-1.5,29.5-0.8c19.4,0.7,38.6,4.2,57,10.3c18.2,6.2,35.3,14.2,51,25.9c3,2.2,3.6,6.4,1.3,9.4c-1.6,2.2-4.4,3.1-7,2.5
			L1146.4,982z"/>
		<g>
			
				<radialGradient id="SVGID_7_" cx="10455.6758" cy="-738.0362" r="694.34" gradientTransform="matrix(0.3511 -0.8935 -0.8097 -0.3181 -3241.1179 10120.9795)" gradientUnits="userSpaceOnUse">
				<stop  offset="0" style="stop-color:#00A4FF"/>
				<stop  offset="5.675978e-02" style="stop-color:#008AD6;stop-opacity:0.7"/>
				<stop  offset="0.1145" style="stop-color:#0387CF;stop-opacity:0.5"/>
				<stop  offset="0.5363" style="stop-color:#000000;stop-opacity:0"/>
			</radialGradient>
			<path class="st22" d="M465.5,777.9C600.3,434.8,961,255.3,1271,377.1s452,498.7,317.2,841.9s-495.4,522.6-805.4,400.8
				S330.7,1121.1,465.5,777.9z"/>
		</g>
		
			<ellipse transform="matrix(0.25 -0.9682 0.9682 0.25 -32.1101 1456.7382)" class="st23" cx="924.3" cy="749.1" rx="153.4" ry="361.1"/>
		<path class="st8" d="M1108,1291.2c-132.8,0-193.5-62-257.4-127.4c-83.3-85.2-177.7-181.7-460.1-186.2c-9.1-0.1-16.3-7.5-16.3-16.5
			s7.5-16.3,16.5-16.3h0.3c295.9,4.7,399.7,110.8,483.1,196c68.7,70.2,122.9,125.7,262,116.6c135.6-8.8,217.8-77.1,251.6-208.8
			c30.7-119.9-9.3-244.2-109.7-341.1c-209.6-202.1-617.7-163.2-621.8-162.7c-9,0.9-17.1-5.6-18-14.6s5.6-17.1,14.6-18
			c4.3-0.4,107.6-10.7,239.4,4.9c122.5,14.5,292.8,55.2,408.5,166.8c109.1,105.3,152.4,241.1,118.7,372.8
			c-37.2,145.2-131.8,223.7-281.2,233.4C1127.7,1290.9,1117.7,1291.2,1108,1291.2z"/>
		<g>
			<defs>
				<polygon id="SVGID_8_" points="128.6,1216.5 140.3,1129.3 383.3,986.1 513.6,695 660.4,508.6 987.9,143.2 1070.1,417.9 
					1093.5,712.6 522.2,1361.8 201.4,1413.5 				"/>
			</defs>
			<radialGradient id="SVGID_9_" cx="611.0599" cy="778.37" r="564.0046" gradientUnits="userSpaceOnUse">
				<stop  offset="0" style="stop-color:#00A4FF"/>
				<stop  offset="5.675978e-02" style="stop-color:#008AD6;stop-opacity:0.7"/>
				<stop  offset="0.1145" style="stop-color:#0387CF;stop-opacity:0.5"/>
				<stop  offset="0.5363" style="stop-color:#000000;stop-opacity:0"/>
			</radialGradient>
			<use xlink:href="#SVGID_8_"  style="overflow:visible;fill:url(#SVGID_9_);"/>
			<clipPath id="SVGID_10_">
				<use xlink:href="#SVGID_8_"  style="overflow:visible;"/>
			</clipPath>
			<g class="st24">
				
					<radialGradient id="SVGID_11_" cx="10502.5703" cy="-241.532" r="694.34" gradientTransform="matrix(0.3511 -0.8935 -0.8097 -0.3181 -3241.1062 10120.9834)" gradientUnits="userSpaceOnUse">
					<stop  offset="0" style="stop-color:#00A4FF"/>
					<stop  offset="5.675978e-02" style="stop-color:#008AD6;stop-opacity:0.7"/>
					<stop  offset="0.1648" style="stop-color:#0387CF;stop-opacity:0.5"/>
					<stop  offset="0.4525" style="stop-color:#000000;stop-opacity:0"/>
				</radialGradient>
				<path class="st25" d="M80.7,578.3C215.5,235.1,576.2,55.7,886.2,177.5s452,498.7,317.2,841.9S707.9,1542,397.9,1420.2
					C87.9,1298.4-54.1,921.5,80.7,578.3z"/>
			</g>
		</g>
	</g>
</g>
</svg>
